<svg xmlns="http://www.w3.org/2000/svg" xmlns:xlink="http://www.w3.org/1999/xlink" width="100" height="100" viewBox="0 0 100 100">
  <defs>
    <linearGradient id="linear-gradient" x1="0.92" y1="0.044" x2="0.068" y2="0.945" gradientUnits="objectBoundingBox">
      <stop offset="0" stop-color="#fff"/>
      <stop offset="1" stop-color="#ffc764"/>
    </linearGradient>
  </defs>
  <g id="icon-instaBus" transform="translate(-985 -45)">
    <rect id="Rectangle_65" data-name="Rectangle 65" width="100" height="100" rx="20" transform="translate(985 45)" fill="url(#linear-gradient)"/>
    <g id="icon-white" transform="translate(504 41)">
      <g id="icon" transform="translate(488 39)">
        <g id="Groupe_126" data-name="Groupe 126" transform="translate(0)">
          <g id="Groupe_2" data-name="Groupe 2" transform="translate(0 35.391)" opacity="0.2">
            <path id="Tracé_1" data-name="Tracé 1" d="M507.069,2933.776c0,1.222-19.118,2.214-42.7,2.214s-42.7-.992-42.7-2.214c0-.275.96-.537,2.717-.779h79.969C506.109,2933.239,507.069,2933.5,507.069,2933.776Z" transform="translate(-421.667 -2932.998)" fill="#6b184e"/>
          </g>
          <g id="Groupe_124" data-name="Groupe 124" transform="translate(0.387)">
            <g id="Groupe_3" data-name="Groupe 3" transform="translate(11.028 25.567)">
              <rect id="Rectangle_7" data-name="Rectangle 7" width="57.223" height="6.929" transform="translate(0.067 0.067)" fill="#6e4d42"/>
              <path id="Tracé_2" data-name="Tracé 2" d="M906.27,2572.366H848.913V2565.3H906.27Zm-57.223-.133h57.09v-6.8h-57.09Z" transform="translate(-848.913 -2565.303)" fill="#6b184e"/>
            </g>
            <g id="Groupe_4" data-name="Groupe 4" transform="translate(0.42 3.339)">
              <path id="Tracé_3" data-name="Tracé 3" d="M533.517,1738.749v25.575a.8.8,0,0,1-.8.795H521.331a.8.8,0,0,1-.8-.795v-1.345c0-.1,0-.209-.011-.31a4.224,4.224,0,0,0-.333-1.374c-.011-.029-.024-.057-.036-.085a4.406,4.406,0,0,0-.436-.754,4.1,4.1,0,0,0-5.56-1.069,4.164,4.164,0,0,0-1.565,1.823c-.013.028-.025.056-.035.085a3.876,3.876,0,0,0-.21.657s0,0,0,.007c-.014.056-.025.111-.035.168s-.024.142-.033.214c-.015.107-.025.217-.031.327,0,.071-.006.141-.006.211v1.444a.8.8,0,0,1-.8.795H486.3a.8.8,0,0,1-.795-.795v-1.345a4.124,4.124,0,0,0-.033-.526,4.194,4.194,0,0,0-3.959-3.716,4.15,4.15,0,0,0-4.277,3.716c-.014.141-.021.283-.021.427v1.261a1.035,1.035,0,0,1-.731.977h-1.064a.8.8,0,0,1-.8-.795v-1.344c0-.07,0-.141-.006-.21,0-.052-.006-.1-.01-.156,0-.024,0-.046-.007-.07-.006-.057-.012-.113-.019-.17,0-.006,0-.011,0-.017-.01-.068-.022-.135-.035-.2a4.136,4.136,0,0,0-8.21.724v1.263a.794.794,0,0,1-.956.777l-10.021-1.688a1.175,1.175,0,0,1-.98-1.158v-23.2a3.094,3.094,0,0,1,3.093-3.095h73.075A2.969,2.969,0,0,1,533.517,1738.749Z" transform="translate(-454.311 -1735.712)" fill="#ffb640"/>
              <path id="Tracé_4" data-name="Tracé 4" d="M530.287,1762.753H518.9a.853.853,0,0,1-.613-.259.842.842,0,0,1-.25-.6v-1.345c0-.116,0-.215-.011-.305a4.138,4.138,0,0,0-.327-1.353c-.012-.031-.024-.057-.036-.084a4.328,4.328,0,0,0-.429-.743,4.024,4.024,0,0,0-3.128-1.69,4.083,4.083,0,0,0-3.882,2.433.81.81,0,0,0-.033.079,3.872,3.872,0,0,0-.207.644l0,.016c-.013.054-.024.108-.034.164s-.023.14-.033.212c-.014.1-.024.208-.03.322,0,.069-.006.138-.006.208v1.444a.863.863,0,0,1-.863.862H483.866a.863.863,0,0,1-.862-.862v-1.345a4.054,4.054,0,0,0-.033-.518,4.148,4.148,0,0,0-3.9-3.657,4.089,4.089,0,0,0-4.208,3.656c-.014.137-.021.279-.021.42v1.261a1.1,1.1,0,0,1-.785,1.043h-1.076a.863.863,0,0,1-.863-.862v-1.344c0-.068,0-.138-.005-.206,0-.052-.006-.1-.01-.154,0-.022,0-.04-.006-.061-.006-.057-.012-.105-.018-.155l-.005-.037c-.009-.066-.021-.13-.034-.194a4.1,4.1,0,0,0-3.851-3.37,4.08,4.08,0,0,0-4.227,4.076v1.263a.861.861,0,0,1-1.037.842l-10.018-1.689a1.237,1.237,0,0,1-1.036-1.224v-23.2a3.164,3.164,0,0,1,3.16-3.162h73.075a3.04,3.04,0,0,1,3.038,3.036v25.576a.868.868,0,0,1-.863.862Zm-16.329-6.518.15,0a4.157,4.157,0,0,1,3.232,1.746,4.447,4.447,0,0,1,.443.766c.013.029.026.058.038.089a4.273,4.273,0,0,1,.337,1.394c.008.092.011.2.011.315v1.345a.712.712,0,0,0,.211.509.72.72,0,0,0,.518.219h11.39a.734.734,0,0,0,.729-.728v-25.576a2.906,2.906,0,0,0-2.9-2.9H455.037a3.031,3.031,0,0,0-3.027,3.028v23.2a1.1,1.1,0,0,0,.924,1.093l10.021,1.688a.727.727,0,0,0,.879-.711v-1.263a4.214,4.214,0,0,1,4.365-4.21,4.227,4.227,0,0,1,3.977,3.473c.013.072.026.138.035.205l.006.039c.006.05.012.1.017.15,0,.028.006.049.007.072,0,.051.008.106.01.158,0,.069.006.141.006.212v1.344a.73.73,0,0,0,.73.728h1.064a.972.972,0,0,0,.664-.911v-1.261c0-.145.007-.292.021-.434a4.225,4.225,0,0,1,4.346-3.776,4.283,4.283,0,0,1,4.023,3.774,4.188,4.188,0,0,1,.034.534v1.345a.729.729,0,0,0,.728.728h25.147a.73.73,0,0,0,.73-.728v-1.444c0-.072,0-.142.006-.214.006-.118.017-.23.031-.334q.015-.108.034-.216c.009-.056.02-.11.034-.165l0-.014a3.972,3.972,0,0,1,.214-.669c.009-.026.022-.056.035-.086a4.217,4.217,0,0,1,3.858-2.515Z" transform="translate(-451.877 -1733.279)" fill="#6b184e"/>
            </g>
            <g id="Groupe_5" data-name="Groupe 5" transform="translate(0.487 18.973)">
              <path id="Tracé_5" data-name="Tracé 5" d="M533.492,2324.174v3.82H520.166c-.011-.029-.024-.057-.036-.085a4.406,4.406,0,0,0-.436-.754,4.1,4.1,0,0,0-5.56-1.069,4.164,4.164,0,0,0-1.565,1.823c-.013.029-.025.056-.035.085H492.844a1.5,1.5,0,0,1-1.2-.6l-2.386-3.217-.938-1.264a1.489,1.489,0,0,0-1.2-.6h-32.77v-3.82h34.693a1.489,1.489,0,0,1,1.2.6l2.388,3.218.937,1.264a1.5,1.5,0,0,0,1.2.6Z" transform="translate(-454.353 -2318.487)" fill="#fff"/>
            </g>
            <g id="Groupe_6" data-name="Groupe 6" transform="translate(0.488 28.22)" opacity="0.3">
              <path id="Tracé_6" data-name="Tracé 6" d="M466.136,2666.02h.308a4.212,4.212,0,0,0-.089.857v1.262a.8.8,0,0,1-.956.778l-10.02-1.689a1.174,1.174,0,0,1-.98-1.158v-1.479h1.145l9.855,1.661A.787.787,0,0,0,466.136,2666.02Z" transform="translate(-454.399 -2664.59)" fill="#6b184e"/>
            </g>
            <g id="Groupe_7" data-name="Groupe 7" transform="translate(20.543 29.583)" opacity="0.3">
              <path id="Tracé_7" data-name="Tracé 7" d="M1209.1,2718.529h1.815c-.014.14-.021.282-.021.427v1.261a1.036,1.036,0,0,1-.731.978H1209.1a.8.8,0,0,1-.8-.8v-1.344c0-.071,0-.14-.005-.21,0-.053-.006-.1-.01-.156,0-.024,0-.046-.007-.07-.005-.057-.012-.114-.019-.169,0-.006,0-.012,0-.017-.01-.069-.021-.135-.035-.2-.009-.044-.018-.089-.028-.134h.2A.8.8,0,0,0,1209.1,2718.529Z" transform="translate(-1208.113 -2718.031)" fill="#6e4d42"/>
              <path id="Tracé_8" data-name="Tracé 8" d="M1206.073,2718.827a.863.863,0,0,1-.863-.861v-1.344c0-.07,0-.137-.005-.206s-.006-.1-.01-.154c0-.022,0-.041-.006-.061-.006-.065-.013-.122-.02-.176l0-.016c-.01-.067-.021-.132-.034-.2-.008-.045-.018-.089-.028-.133l-.018-.081h.32l.019.036a.726.726,0,0,0,.648.394h1.889l-.007.074c-.013.137-.02.28-.02.421v1.261a1.1,1.1,0,0,1-.785,1.043Zm-.821-3.1.011.055c.014.067.025.135.036.2l0,.018c.007.056.014.114.02.172,0,.028.006.049.007.072,0,.051.008.1.01.158s.006.139.006.211v1.344a.73.73,0,0,0,.729.728h1.064a.972.972,0,0,0,.664-.911v-1.261c0-.121,0-.242.015-.361h-1.742a.859.859,0,0,1-.747-.43Z" transform="translate(-1205.087 -2715.598)" fill="#6b184e"/>
            </g>
            <g id="Groupe_8" data-name="Groupe 8" transform="translate(31.581 29.578)" opacity="0.3">
              <path id="Tracé_9" data-name="Tracé 9" d="M1645.124,2715.44s0,0,0,.007c-.013.055-.024.111-.035.168s-.024.142-.033.214c-.014.107-.024.217-.031.328,0,.071-.006.14-.006.211v1.444a.8.8,0,0,1-.8.794h-25.147a.8.8,0,0,1-.795-.794v-1.345a4.17,4.17,0,0,0-.033-.527h25.975a.794.794,0,0,0,.739-.5Z" transform="translate(-1618.247 -2715.44)" fill="#6b184e"/>
            </g>
            <g id="Groupe_9" data-name="Groupe 9" transform="translate(66.52 29.834)" opacity="0.3">
              <path id="Tracé_10" data-name="Tracé 10" d="M2939.149,2725v2.243a.612.612,0,0,1-.231.469.871.871,0,0,1-.566.2h-11.388a.872.872,0,0,1-.566-.2.613.613,0,0,1-.23-.469v-1.132c0-.088,0-.176-.011-.261a3.014,3.014,0,0,0-.113-.6h.18a.672.672,0,0,0,.174.222.87.87,0,0,0,.566.2h11.388a.869.869,0,0,0,.566-.2A.612.612,0,0,0,2939.149,2725Z" transform="translate(-2926.044 -2725)" fill="#6b184e"/>
            </g>
            <g id="Groupe_10" data-name="Groupe 10" transform="translate(0.488 3.405)" opacity="0.55">
              <path id="Tracé_11" data-name="Tracé 11" d="M533.537,1738.74v1.207a2.969,2.969,0,0,0-2.97-2.97H457.492a3.093,3.093,0,0,0-3.093,3.094v-1.207a3.093,3.093,0,0,1,3.093-3.094h73.075A2.969,2.969,0,0,1,533.537,1738.74Z" transform="translate(-454.399 -1735.77)" fill="#fff"/>
            </g>
            <g id="Groupe_11" data-name="Groupe 11" transform="translate(76.223 6.375)">
              <path id="Rectangle_8" data-name="Rectangle 8" d="M2.34,0H3.4a0,0,0,0,1,0,0V18.068a0,0,0,0,1,0,0h0a3.4,3.4,0,0,1-3.4-3.4V2.34A2.34,2.34,0,0,1,2.34,0Z" fill="#2cbeff"/>
            </g>
            <g id="Groupe_12" data-name="Groupe 12" transform="translate(76.222 6.375)" opacity="0.3">
              <path id="Tracé_12" data-name="Tracé 12" d="M3291.864,1865h-1.183a1.485,1.485,0,0,1-1.486-1.484v-15.562a1.021,1.021,0,0,1,1.021-1.022h1.183a1.021,1.021,0,0,0-1.021,1.022v15.562A1.485,1.485,0,0,0,3291.864,1865Z" transform="translate(-3289.195 -1846.929)" fill="#6b184e"/>
            </g>
            <g id="Groupe_13" data-name="Groupe 13" transform="translate(53.391 6.375)">
              <path id="Rectangle_9" data-name="Rectangle 9" d="M4.517,0h0A4.517,4.517,0,0,1,9.034,4.517v0A4.517,4.517,0,0,1,4.517,9.034h0A4.517,4.517,0,0,1,0,4.517v0A4.517,4.517,0,0,1,4.517,0Z" fill="#2cbeff"/>
            </g>
            <g id="Groupe_14" data-name="Groupe 14" transform="translate(42.253 6.375)">
              <path id="Rectangle_10" data-name="Rectangle 10" d="M4.517,0h0A4.517,4.517,0,0,1,9.034,4.517v0A4.517,4.517,0,0,1,4.517,9.034h0A4.517,4.517,0,0,1,0,4.517v0A4.517,4.517,0,0,1,4.517,0Z" fill="#2cbeff"/>
            </g>
            <g id="Groupe_15" data-name="Groupe 15" transform="translate(31.115 6.375)">
              <rect id="Rectangle_11" data-name="Rectangle 11" width="9.034" height="9.034" rx="4.517" fill="#2cbeff"/>
            </g>
            <g id="Groupe_16" data-name="Groupe 16" transform="translate(19.978 6.375)">
              <rect id="Rectangle_12" data-name="Rectangle 12" width="9.034" height="9.034" rx="4.517" fill="#2cbeff"/>
            </g>
            <g id="Groupe_17" data-name="Groupe 17" transform="translate(8.841 6.375)">
              <path id="Tracé_13" data-name="Tracé 13" d="M776.1,1848.146v6.621a1.208,1.208,0,0,1-1.207,1.207h-6.62a1.207,1.207,0,0,1-1.207-1.207v-6.621a1.208,1.208,0,0,1,.986-1.186,1.231,1.231,0,0,1,.221-.02h6.62A1.207,1.207,0,0,1,776.1,1848.146Z" transform="translate(-767.063 -1846.94)" fill="#2cbeff"/>
            </g>
            <g id="Groupe_18" data-name="Groupe 18" transform="translate(8.841 6.396)" opacity="0.45">
              <path id="Tracé_14" data-name="Tracé 14" d="M774.473,1856.718H771.5l-4.44-6.228v-1.6a1.207,1.207,0,0,1,.986-1.186Z" transform="translate(-767.063 -1847.704)" fill="#fff"/>
            </g>
            <g id="Groupe_19" data-name="Groupe 19" transform="translate(11.094 6.375)" opacity="0.45">
              <path id="Tracé_15" data-name="Tracé 15" d="M858.192,1853.557v1.21a1.2,1.2,0,0,1-.5.978l-6.278-8.806h2.062Z" transform="translate(-851.413 -1846.94)" fill="#fff"/>
            </g>
            <g id="Groupe_20" data-name="Groupe 20" transform="translate(19.978 6.396)" opacity="0.45">
              <path id="Tracé_16" data-name="Tracé 16" d="M1191.359,1856.718h-2.97l-4.44-6.228v-1.6a1.207,1.207,0,0,1,.986-1.186Z" transform="translate(-1183.949 -1847.704)" fill="#fff"/>
            </g>
            <g id="Groupe_21" data-name="Groupe 21" transform="translate(22.232 6.375)" opacity="0.45">
              <path id="Tracé_17" data-name="Tracé 17" d="M1275.078,1853.557v1.21a1.2,1.2,0,0,1-.5.978l-6.278-8.806h2.062Z" transform="translate(-1268.299 -1846.94)" fill="#fff"/>
            </g>
            <g id="Groupe_22" data-name="Groupe 22" transform="translate(31.116 6.396)" opacity="0.45">
              <path id="Tracé_18" data-name="Tracé 18" d="M1608.244,1856.718h-2.97l-4.44-6.228v-1.6a1.207,1.207,0,0,1,.986-1.186Z" transform="translate(-1600.834 -1847.704)" fill="#fff"/>
            </g>
            <g id="Groupe_23" data-name="Groupe 23" transform="translate(33.37 6.375)" opacity="0.45">
              <path id="Tracé_19" data-name="Tracé 19" d="M1691.963,1853.557v1.21a1.2,1.2,0,0,1-.5.978l-6.278-8.806h2.062Z" transform="translate(-1685.184 -1846.94)" fill="#fff"/>
            </g>
            <g id="Groupe_24" data-name="Groupe 24" transform="translate(42.254 6.396)" opacity="0.45">
              <path id="Tracé_20" data-name="Tracé 20" d="M2025.13,1856.718h-2.97l-4.44-6.228v-1.6a1.207,1.207,0,0,1,.986-1.186Z" transform="translate(-2017.72 -1847.704)" fill="#fff"/>
            </g>
            <g id="Groupe_25" data-name="Groupe 25" transform="translate(44.507 6.375)" opacity="0.45">
              <path id="Tracé_21" data-name="Tracé 21" d="M2108.848,1853.557v1.21a1.2,1.2,0,0,1-.5.978l-6.278-8.806h2.063Z" transform="translate(-2102.069 -1846.94)" fill="#fff"/>
            </g>
            <g id="Groupe_26" data-name="Groupe 26" transform="translate(53.391 6.396)" opacity="0.45">
              <path id="Tracé_22" data-name="Tracé 22" d="M2442.015,1856.718h-2.969l-4.441-6.228v-1.6a1.207,1.207,0,0,1,.986-1.186Z" transform="translate(-2434.605 -1847.704)" fill="#fff"/>
            </g>
            <g id="Groupe_27" data-name="Groupe 27" transform="translate(55.645 6.375)" opacity="0.45">
              <path id="Tracé_23" data-name="Tracé 23" d="M2525.734,1853.557v1.21a1.2,1.2,0,0,1-.5.978l-6.277-8.806h2.062Z" transform="translate(-2518.955 -1846.94)" fill="#fff"/>
            </g>
            <g id="Groupe_33" data-name="Groupe 33" transform="translate(8.841 6.375)" opacity="0.3">
              <g id="Groupe_28" data-name="Groupe 28" transform="translate(44.55)">
                <path id="Tracé_24" data-name="Tracé 24" d="M2443.624,1847.972h-6.638a1.207,1.207,0,0,0-1.207,1.207v6.622a1.02,1.02,0,0,0,.014.174,1.208,1.208,0,0,1-1.188-1.207v-6.621a1.206,1.206,0,0,1,1.207-1.207h6.62A1.206,1.206,0,0,1,2443.624,1847.972Z" transform="translate(-2434.605 -1846.94)" fill="#6b184e"/>
              </g>
              <g id="Groupe_29" data-name="Groupe 29" transform="translate(33.413)">
                <path id="Tracé_25" data-name="Tracé 25" d="M2026.739,1847.972H2020.1a1.207,1.207,0,0,0-1.207,1.207v6.622a1.086,1.086,0,0,0,.013.174,1.207,1.207,0,0,1-1.188-1.207v-6.621a1.206,1.206,0,0,1,1.207-1.207h6.62A1.206,1.206,0,0,1,2026.739,1847.972Z" transform="translate(-2017.72 -1846.94)" fill="#6b184e"/>
              </g>
              <g id="Groupe_30" data-name="Groupe 30" transform="translate(22.275)">
                <path id="Tracé_26" data-name="Tracé 26" d="M1609.854,1847.972h-6.638a1.206,1.206,0,0,0-1.207,1.207v6.622a1.046,1.046,0,0,0,.013.174,1.208,1.208,0,0,1-1.188-1.207v-6.621a1.206,1.206,0,0,1,1.207-1.207h6.62A1.206,1.206,0,0,1,1609.854,1847.972Z" transform="translate(-1600.834 -1846.94)" fill="#6b184e"/>
              </g>
              <g id="Groupe_31" data-name="Groupe 31" transform="translate(11.138)">
                <path id="Tracé_27" data-name="Tracé 27" d="M1192.969,1847.972h-6.638a1.207,1.207,0,0,0-1.207,1.207v6.622a1.059,1.059,0,0,0,.013.174,1.207,1.207,0,0,1-1.188-1.207v-6.621a1.206,1.206,0,0,1,1.207-1.207h6.62A1.207,1.207,0,0,1,1192.969,1847.972Z" transform="translate(-1183.949 -1846.94)" fill="#6b184e"/>
              </g>
              <g id="Groupe_32" data-name="Groupe 32">
                <path id="Tracé_28" data-name="Tracé 28" d="M776.083,1847.972h-6.638a1.207,1.207,0,0,0-1.207,1.207v6.622a1.073,1.073,0,0,0,.013.174,1.208,1.208,0,0,1-1.188-1.207v-6.621a1.207,1.207,0,0,1,1.207-1.207h6.62A1.206,1.206,0,0,1,776.083,1847.972Z" transform="translate(-767.063 -1846.94)" fill="#6b184e"/>
              </g>
            </g>
            <g id="Groupe_39" data-name="Groupe 39" transform="translate(9.81 7.419)" opacity="0.55">
              <g id="Groupe_34" data-name="Groupe 34" transform="translate(44.55)">
                <path id="Tracé_29" data-name="Tracé 29" d="M2479.9,1887.172v6.621a1.206,1.206,0,0,1-1.206,1.207h-6.622a1.205,1.205,0,0,1-1.2-1.043,1.221,1.221,0,0,0,.237.022h6.62a1.207,1.207,0,0,0,1.207-1.207v-6.621a1.13,1.13,0,0,0-.011-.163A1.207,1.207,0,0,1,2479.9,1887.172Z" transform="translate(-2470.874 -1885.988)" fill="#fff"/>
              </g>
              <g id="Groupe_35" data-name="Groupe 35" transform="translate(33.413)">
                <path id="Tracé_30" data-name="Tracé 30" d="M2063.012,1887.172v6.621a1.206,1.206,0,0,1-1.207,1.207h-6.622a1.206,1.206,0,0,1-1.2-1.043,1.222,1.222,0,0,0,.237.022h6.62a1.207,1.207,0,0,0,1.207-1.207v-6.621a1.2,1.2,0,0,0-.011-.163A1.207,1.207,0,0,1,2063.012,1887.172Z" transform="translate(-2053.989 -1885.988)" fill="#fff"/>
              </g>
              <g id="Groupe_36" data-name="Groupe 36" transform="translate(22.275)">
                <path id="Tracé_31" data-name="Tracé 31" d="M1646.127,1887.172v6.621a1.206,1.206,0,0,1-1.207,1.207H1638.3a1.206,1.206,0,0,1-1.2-1.043,1.224,1.224,0,0,0,.237.022h6.62a1.207,1.207,0,0,0,1.207-1.207v-6.621a1.148,1.148,0,0,0-.011-.163A1.207,1.207,0,0,1,1646.127,1887.172Z" transform="translate(-1637.104 -1885.988)" fill="#fff"/>
              </g>
              <g id="Groupe_37" data-name="Groupe 37" transform="translate(11.138)">
                <path id="Tracé_32" data-name="Tracé 32" d="M1229.241,1887.172v6.621a1.206,1.206,0,0,1-1.207,1.207h-6.621a1.205,1.205,0,0,1-1.2-1.043,1.223,1.223,0,0,0,.238.022h6.62a1.207,1.207,0,0,0,1.207-1.207v-6.621a1.166,1.166,0,0,0-.011-.163A1.208,1.208,0,0,1,1229.241,1887.172Z" transform="translate(-1220.218 -1885.988)" fill="#fff"/>
              </g>
              <g id="Groupe_38" data-name="Groupe 38">
                <path id="Tracé_33" data-name="Tracé 33" d="M812.356,1887.172v6.621A1.206,1.206,0,0,1,811.15,1895h-6.621a1.206,1.206,0,0,1-1.2-1.043,1.223,1.223,0,0,0,.238.022h6.619a1.207,1.207,0,0,0,1.207-1.207v-6.621a1.175,1.175,0,0,0-.011-.163A1.207,1.207,0,0,1,812.356,1887.172Z" transform="translate(-803.333 -1885.988)" fill="#fff"/>
              </g>
            </g>
            <g id="Groupe_40" data-name="Groupe 40" transform="translate(0.488 6.375)">
              <path id="Tracé_34" data-name="Tracé 34" d="M457.555,1848.146v6.621a1.171,1.171,0,0,1-.048.336,1.194,1.194,0,0,1-.741.795,1.152,1.152,0,0,1-.418.076H454.4v-9.034h1.949A1.206,1.206,0,0,1,457.555,1848.146Z" transform="translate(-454.399 -1846.94)" fill="#2cbeff"/>
            </g>
            <g id="Groupe_41" data-name="Groupe 41" transform="translate(1.384 7.245)" opacity="0.55">
              <path id="Tracé_35" data-name="Tracé 35" d="M491.115,1880.67v6.621a1.207,1.207,0,0,1-1.207,1.207H488.8a.841.841,0,0,1-.841-.841v-.191h1.052a1.207,1.207,0,0,0,1.207-1.207v-6.621a1.091,1.091,0,0,0-.007-.136A1.206,1.206,0,0,1,491.115,1880.67Z" transform="translate(-487.959 -1879.503)" fill="#fff"/>
            </g>
            <g id="Groupe_42" data-name="Groupe 42" transform="translate(0.488 10.181)" opacity="0.45">
              <path id="Tracé_36" data-name="Tracé 36" d="M457.506,1993.734a1.2,1.2,0,0,1-.741.795l-.635-.152-1.732-2.43v-2.571Z" transform="translate(-454.399 -1989.375)" fill="#fff"/>
            </g>
            <g id="Groupe_43" data-name="Groupe 43" transform="translate(0.488 6.7)" opacity="0.45">
              <path id="Tracé_37" data-name="Tracé 37" d="M457.555,1863.364v1.843l-3.156-4.427V1859.1l.115,0Z" transform="translate(-454.399 -1859.099)" fill="#fff"/>
            </g>
            <g id="Groupe_44" data-name="Groupe 44" transform="translate(75.758 5.911)">
              <path id="Tracé_38" data-name="Tracé 38" d="M3275.691,1848.564h-1.918a1.952,1.952,0,0,1-1.949-1.949v-15.562a1.487,1.487,0,0,1,1.486-1.485h2.382a.464.464,0,0,1,.464.464V1848.1A.464.464,0,0,1,3275.691,1848.564Zm-2.382-18.068a.558.558,0,0,0-.557.557v15.562a1.022,1.022,0,0,0,1.021,1.021h1.455V1830.5Z" transform="translate(-3271.824 -1829.568)" fill="#6b184e"/>
            </g>
            <g id="Groupe_45" data-name="Groupe 45" transform="translate(0.487 18.534)">
              <path id="Rectangle_13" data-name="Rectangle 13" d="M0,0H0A2.1,2.1,0,0,1,2.1,2.1V7.92a2.1,2.1,0,0,1-2.1,2.1H0a0,0,0,0,1,0,0V0A0,0,0,0,1,0,0Z" fill="#ef3d30"/>
            </g>
            <g id="Groupe_46" data-name="Groupe 46" transform="translate(0.488 26.03)" opacity="0.3">
              <path id="Tracé_39" data-name="Tracé 39" d="M456.5,2582.6v1.6a.929.929,0,0,1-.928.929H454.4v-1.6h1.175A.928.928,0,0,0,456.5,2582.6Z" transform="translate(-454.399 -2582.603)" fill="#6b184e"/>
            </g>
            <g id="Groupe_47" data-name="Groupe 47" transform="translate(72.446 6.375)" opacity="0.55">
              <path id="Tracé_40" data-name="Tracé 40" d="M3150.32,1848.039v21.178a1.642,1.642,0,0,1-1.643,1.643h-.85a1.642,1.642,0,0,0,1.643-1.643v-21.178a1.1,1.1,0,0,0-1.1-1.1h.85A1.1,1.1,0,0,1,3150.32,1848.039Z" transform="translate(-3147.827 -1846.94)" fill="#fff"/>
            </g>
            <g id="Groupe_48" data-name="Groupe 48" transform="translate(0.488 18.534)" opacity="0.55">
              <path id="Tracé_41" data-name="Tracé 41" d="M456.5,2302.967v1.16a.928.928,0,0,0-.928-.928H454.4v-1.16h1.175A.928.928,0,0,1,456.5,2302.967Z" transform="translate(-454.399 -2302.039)" fill="#fff"/>
            </g>
            <g id="Groupe_49" data-name="Groupe 49" transform="translate(65.054 6.375)">
              <path id="Tracé_42" data-name="Tracé 42" d="M2880.188,1848.039v11.245h-9.034v-11.245a1.1,1.1,0,0,1,1.1-1.1h6.837A1.1,1.1,0,0,1,2880.188,1848.039Z" transform="translate(-2871.154 -1846.94)" fill="#2cbeff"/>
            </g>
            <g id="Groupe_50" data-name="Groupe 50" transform="translate(0.023 18.07)">
              <path id="Tracé_43" data-name="Tracé 43" d="M438.646,2295.62H437.47a.464.464,0,0,1-.464-.464v-10.024a.464.464,0,0,1,.464-.464h1.176a1.394,1.394,0,0,1,1.392,1.392v8.168A1.394,1.394,0,0,1,438.646,2295.62Zm-.712-.928h.712a.465.465,0,0,0,.464-.464v-8.168a.465.465,0,0,0-.464-.464h-.712Z" transform="translate(-437.006 -2284.668)" fill="#6b184e"/>
            </g>
            <g id="Groupe_51" data-name="Groupe 51" transform="translate(0.023 21.875)">
              <path id="Tracé_44" data-name="Tracé 44" d="M439.574,2431.328h-2.1a.464.464,0,0,1-.464-.464v-3.3a.464.464,0,0,1,.464-.464h2.1a.464.464,0,0,1,.464.464v3.3A.464.464,0,0,1,439.574,2431.328Zm-1.64-.929h1.176v-2.367h-1.176Z" transform="translate(-437.006 -2427.105)" fill="#6b184e"/>
            </g>
            <g id="Groupe_52" data-name="Groupe 52" transform="translate(65.054 6.658)" opacity="0.45">
              <path id="Tracé_45" data-name="Tracé 45" d="M2878.483,1869.563h-3.572l-3.757-6.506v-4.739a1.088,1.088,0,0,1,.366-.817Z" transform="translate(-2871.154 -1857.501)" fill="#fff"/>
            </g>
            <g id="Groupe_53" data-name="Groupe 53" transform="translate(67.423 6.375)" opacity="0.45">
              <path id="Tracé_46" data-name="Tracé 46" d="M2966.477,1854.517v3.97l-6.666-11.548h2.291Z" transform="translate(-2959.811 -1846.939)" fill="#fff"/>
            </g>
            <g id="Groupe_54" data-name="Groupe 54" transform="translate(64.59 5.911)">
              <path id="Tracé_47" data-name="Tracé 47" d="M2861.639,1854.416h-2.947a1.815,1.815,0,0,1-1.76-1.41,5.25,5.25,0,0,0-2.286-3.2,1.839,1.839,0,0,1-.862-1.549v-17.126a1.565,1.565,0,0,1,1.563-1.563h6.837a1.565,1.565,0,0,1,1.563,1.563v21.178A2.109,2.109,0,0,1,2861.639,1854.416Zm-6.293-23.92a.635.635,0,0,0-.634.635v17.126a.915.915,0,0,0,.434.767,6.173,6.173,0,0,1,2.688,3.764.892.892,0,0,0,.859.7h2.947a1.18,1.18,0,0,0,1.178-1.179v-21.178a.635.635,0,0,0-.634-.635Z" transform="translate(-2853.783 -1829.568)" fill="#6b184e"/>
            </g>
            <g id="Groupe_55" data-name="Groupe 55" transform="translate(52.926 5.911)">
              <path id="Tracé_48" data-name="Tracé 48" d="M2425.5,1839.53h-6.62a1.673,1.673,0,0,1-1.671-1.671v-6.62a1.673,1.673,0,0,1,1.671-1.671h6.62a1.673,1.673,0,0,1,1.67,1.671v6.62A1.673,1.673,0,0,1,2425.5,1839.53Zm-6.62-9.034a.744.744,0,0,0-.743.743v6.62a.744.744,0,0,0,.743.743h6.62a.744.744,0,0,0,.742-.743v-6.62a.744.744,0,0,0-.742-.743Z" transform="translate(-2417.211 -1829.568)" fill="#6b184e"/>
            </g>
            <g id="Groupe_56" data-name="Groupe 56" transform="translate(41.789 5.911)">
              <path id="Tracé_49" data-name="Tracé 49" d="M2008.617,1839.53H2002a1.673,1.673,0,0,1-1.671-1.671v-6.62a1.673,1.673,0,0,1,1.671-1.671h6.621a1.673,1.673,0,0,1,1.67,1.671v6.62A1.673,1.673,0,0,1,2008.617,1839.53ZM2002,1830.5a.744.744,0,0,0-.743.743v6.62a.743.743,0,0,0,.743.743h6.621a.744.744,0,0,0,.742-.743v-6.62a.744.744,0,0,0-.742-.743Z" transform="translate(-2000.326 -1829.568)" fill="#6b184e"/>
            </g>
            <g id="Groupe_57" data-name="Groupe 57" transform="translate(30.651 5.911)">
              <path id="Tracé_50" data-name="Tracé 50" d="M1591.733,1839.53h-6.621a1.673,1.673,0,0,1-1.671-1.671v-6.62a1.673,1.673,0,0,1,1.671-1.671h6.621a1.673,1.673,0,0,1,1.671,1.671v6.62A1.673,1.673,0,0,1,1591.733,1839.53Zm-6.621-9.034a.743.743,0,0,0-.742.743v6.62a.743.743,0,0,0,.742.743h6.621a.743.743,0,0,0,.742-.743v-6.62a.744.744,0,0,0-.742-.743Z" transform="translate(-1583.442 -1829.568)" fill="#6b184e"/>
            </g>
            <g id="Groupe_58" data-name="Groupe 58" transform="translate(19.514 5.911)">
              <path id="Tracé_51" data-name="Tracé 51" d="M1174.845,1839.53h-6.621a1.673,1.673,0,0,1-1.67-1.671v-6.62a1.673,1.673,0,0,1,1.67-1.671h6.621a1.673,1.673,0,0,1,1.671,1.671v6.62A1.673,1.673,0,0,1,1174.845,1839.53Zm-6.621-9.034a.743.743,0,0,0-.742.743v6.62a.743.743,0,0,0,.742.743h6.621a.744.744,0,0,0,.743-.743v-6.62a.744.744,0,0,0-.743-.743Z" transform="translate(-1166.554 -1829.568)" fill="#6b184e"/>
            </g>
            <g id="Groupe_59" data-name="Groupe 59" transform="translate(8.376 5.911)">
              <path id="Tracé_52" data-name="Tracé 52" d="M757.96,1839.53H751.34a1.673,1.673,0,0,1-1.671-1.671v-6.62a1.673,1.673,0,0,1,1.671-1.671h6.621a1.673,1.673,0,0,1,1.67,1.671v6.62A1.673,1.673,0,0,1,757.96,1839.53Zm-6.621-9.034a.744.744,0,0,0-.742.743v6.62a.744.744,0,0,0,.742.743h6.621a.744.744,0,0,0,.742-.743v-6.62a.744.744,0,0,0-.742-.743Z" transform="translate(-749.669 -1829.568)" fill="#6b184e"/>
            </g>
            <g id="Groupe_60" data-name="Groupe 60" transform="translate(0.024 5.911)">
              <path id="Tracé_53" data-name="Tracé 53" d="M439.441,1839.531h-1.949a.464.464,0,1,1,0-.928h1.949a.743.743,0,0,0,.743-.743v-6.621a.744.744,0,0,0-.743-.743h-1.949a.464.464,0,1,1,0-.928h1.949a1.673,1.673,0,0,1,1.671,1.671v6.621A1.673,1.673,0,0,1,439.441,1839.531Z" transform="translate(-437.028 -1829.568)" fill="#6b184e"/>
            </g>
            <g id="Groupe_61" data-name="Groupe 61" transform="translate(64.59 18.255)">
              <path id="Tracé_54" data-name="Tracé 54" d="M2863.281,2292.544h-9.034a.464.464,0,1,1,0-.928h9.034a.464.464,0,1,1,0,.928Z" transform="translate(-2853.783 -2291.616)" fill="#6b184e"/>
            </g>
            <g id="Groupe_62" data-name="Groupe 62" transform="translate(66.338 20.158)">
              <rect id="Rectangle_14" data-name="Rectangle 14" width="1.207" height="2.506" rx="0.603" fill="#6b184e"/>
            </g>
            <g id="Groupe_63" data-name="Groupe 63" transform="translate(0 2.918)">
              <path id="Tracé_55" data-name="Tracé 55" d="M458.626,1747.868a1.044,1.044,0,0,1-.157-.012h-.8a1.284,1.284,0,0,1-1.284-1.282v-1.345a3.741,3.741,0,0,0-3.523-3.755,3.66,3.66,0,0,0-3.791,3.656v1.261a1.285,1.285,0,0,1-1.534,1.259l-10.012-1.689a1.66,1.66,0,0,1-1.386-1.64v-23.2a3.585,3.585,0,0,1,3.58-3.581H512.8a3.461,3.461,0,0,1,3.458,3.457v25.576a1.284,1.284,0,0,1-1.283,1.282H503.583a1.284,1.284,0,0,1-1.284-1.282v-1.345a3.74,3.74,0,0,0-3.526-3.755,3.66,3.66,0,0,0-3.792,3.656v1.444a1.284,1.284,0,0,1-1.282,1.282H468.552a1.283,1.283,0,0,1-1.282-1.282v-1.345a3.63,3.63,0,0,0-.029-.464,3.725,3.725,0,0,0-3.493-3.291,3.669,3.669,0,0,0-3.775,3.279c-.012.122-.018.25-.018.377v1.261a1.526,1.526,0,0,1-1.115,1.453l-.017,0A.981.981,0,0,1,458.626,1747.868Zm40.015-7.371c.056,0,.111,0,.167,0a4.723,4.723,0,0,1,4.466,4.729v1.345a.309.309,0,0,0,.309.307h11.389a.309.309,0,0,0,.309-.307V1721a2.486,2.486,0,0,0-2.484-2.482H439.723a2.609,2.609,0,0,0-2.606,2.606v23.2a.688.688,0,0,0,.574.679l10.019,1.69.017,0a.309.309,0,0,0,.372-.3v-1.261a4.634,4.634,0,0,1,4.8-4.63,4.723,4.723,0,0,1,4.463,4.729v1.345a.309.309,0,0,0,.309.307h1a.592.592,0,0,0,.308-.49v-1.261c0-.16.008-.32.023-.475a4.646,4.646,0,0,1,4.779-4.154,4.706,4.706,0,0,1,4.426,4.144,4.585,4.585,0,0,1,.037.585v1.345a.308.308,0,0,0,.308.307H493.7a.308.308,0,0,0,.308-.307v-1.444a4.634,4.634,0,0,1,4.633-4.633Z" transform="translate(-436.142 -1717.542)" fill="#6b184e"/>
            </g>
            <g id="Groupe_64" data-name="Groupe 64" transform="translate(77.393 27.779)">
              <path id="Rectangle_15" data-name="Rectangle 15" d="M.964,0h1.7A1.238,1.238,0,0,1,3.9,1.238v0A3.662,3.662,0,0,1,.236,4.9H0a0,0,0,0,1,0,0V.964A.964.964,0,0,1,.964,0Z" transform="translate(0.067 0.067)" fill="#ffb640"/>
              <path id="Tracé_56" data-name="Tracé 56" d="M3334.6,2653.134h-1.585v-4.34a.694.694,0,0,1,.693-.693h2.467a.872.872,0,0,1,.871.871v1.715A2.449,2.449,0,0,1,3334.6,2653.134Zm-1.452-.133h1.452a2.316,2.316,0,0,0,2.313-2.313v-1.715a.739.739,0,0,0-.738-.738h-2.467a.561.561,0,0,0-.56.56Z" transform="translate(-3333.017 -2648.101)" fill="#6b184e"/>
            </g>
            <g id="Groupe_65" data-name="Groupe 65" transform="translate(77.46 28.616)" opacity="0.3">
              <path id="Tracé_57" data-name="Tracé 57" d="M3337.037,2681.272h-1.519v2.539h1.519a2.38,2.38,0,0,0,2.38-2.38v-1.715a.791.791,0,0,0-.06-.3A2.378,2.378,0,0,1,3337.037,2681.272Z" transform="translate(-3335.518 -2679.414)" fill="#6b184e"/>
            </g>
            <g id="Groupe_66" data-name="Groupe 66" transform="translate(77.459 27.847)" opacity="0.55">
              <path id="Tracé_58" data-name="Tracé 58" d="M3339.393,2651.429v1.175a.8.8,0,0,0-.8-.8h-2.467a.626.626,0,0,0-.627.625v-1.175a.626.626,0,0,1,.627-.626h2.467A.8.8,0,0,1,3339.393,2651.429Z" transform="translate(-3335.495 -2650.625)" fill="#fff"/>
            </g>
            <g id="Groupe_67" data-name="Groupe 67" transform="translate(76.973 27.359)">
              <path id="Tracé_59" data-name="Tracé 59" d="M3319.284,2638.237h-1.518a.487.487,0,0,1-.487-.487v-4.273a1.115,1.115,0,0,1,1.113-1.113h2.468a1.294,1.294,0,0,1,1.292,1.292v1.715A2.87,2.87,0,0,1,3319.284,2638.237Zm-1.031-.975h1.031a1.9,1.9,0,0,0,1.893-1.892v-1.715a.318.318,0,0,0-.317-.318h-2.468a.14.14,0,0,0-.139.139Z" transform="translate(-3317.279 -2632.363)" fill="#6b184e"/>
            </g>
            <g id="Groupe_68" data-name="Groupe 68" transform="translate(74.021 6.308)">
              <path id="Tracé_60" data-name="Tracé 60" d="M3219.782,1848.317v3.412a1.514,1.514,0,0,1-1.513,1.513.714.714,0,0,1-.714-.714v-3.891h-8.244v-1a.706.706,0,0,1,.707-.708h8.377A1.387,1.387,0,0,1,3219.782,1848.317Z" transform="translate(-3209.244 -1846.862)" fill="#ffb640"/>
              <path id="Tracé_61" data-name="Tracé 61" d="M3215.836,1850.876a.782.782,0,0,1-.781-.781v-3.824h-8.244V1845.2a.775.775,0,0,1,.774-.774h8.377a1.457,1.457,0,0,1,1.455,1.455v3.412A1.582,1.582,0,0,1,3215.836,1850.876Zm-8.891-4.739h8.244v3.958a.648.648,0,0,0,.647.647,1.448,1.448,0,0,0,1.447-1.446v-3.412a1.323,1.323,0,0,0-1.321-1.321h-8.377a.641.641,0,0,0-.64.641Z" transform="translate(-3206.811 -1844.429)" fill="#6b184e"/>
            </g>
            <g id="Groupe_69" data-name="Groupe 69" transform="translate(74.088 6.375)" opacity="0.55">
              <path id="Tracé_62" data-name="Tracé 62" d="M3219.782,1848.317v.742a1.387,1.387,0,0,0-1.387-1.388h-8.377a.706.706,0,0,0-.707.707v-.741a.706.706,0,0,1,.707-.708h8.377A1.387,1.387,0,0,1,3219.782,1848.317Z" transform="translate(-3209.311 -1846.929)" fill="#fff"/>
            </g>
            <g id="Groupe_70" data-name="Groupe 70" transform="translate(82.333 9.35)" opacity="0.3">
              <path id="Tracé_63" data-name="Tracé 63" d="M3520.131,1958.287v1.825a1.514,1.514,0,0,1-1.514,1.513.715.715,0,0,1-.714-.714v-1.825a.715.715,0,0,0,.714.714A1.514,1.514,0,0,0,3520.131,1958.287Z" transform="translate(-3517.904 -1958.287)" fill="#6b184e"/>
            </g>
            <g id="Groupe_71" data-name="Groupe 71" transform="translate(73.624 5.911)">
              <path id="Tracé_64" data-name="Tracé 64" d="M3201.362,1836.8a1.18,1.18,0,0,1-1.178-1.178v-3.427h-7.78a.464.464,0,0,1-.464-.464v-1a1.172,1.172,0,0,1,1.172-1.172h8.376a1.854,1.854,0,0,1,1.852,1.852v3.412A1.98,1.98,0,0,1,3201.362,1836.8Zm-8.494-5.533h7.78a.464.464,0,0,1,.464.464v3.891a.25.25,0,0,0,.25.25,1.051,1.051,0,0,0,1.05-1.049v-3.412a.925.925,0,0,0-.924-.924h-8.376a.243.243,0,0,0-.243.243Z" transform="translate(-3191.94 -1829.558)" fill="#6b184e"/>
            </g>
            <g id="Groupe_86" data-name="Groupe 86" transform="translate(57.982 26.853)">
              <g id="Groupe_72" data-name="Groupe 72" transform="translate(0.488 0.487)">
                <path id="Tracé_65" data-name="Tracé 65" d="M2632.717,2635.174a4.025,4.025,0,1,1-7.886-.52h0a4.025,4.025,0,0,1,7.887.521Z" transform="translate(-2624.698 -2631.652)" fill="#7c6b6a"/>
              </g>
              <g id="Groupe_73" data-name="Groupe 73">
                <path id="Tracé_66" data-name="Tracé 66" d="M2610.958,2622.439a4.517,4.517,0,1,1,.566-.036A4.579,4.579,0,0,1,2610.958,2622.439Zm.01-8.05a3.662,3.662,0,0,0-.449.028,3.529,3.529,0,1,0,.449-.028Z" transform="translate(-2606.448 -2613.414)" fill="#6b184e"/>
              </g>
              <g id="Groupe_74" data-name="Groupe 74" transform="translate(2.274 2.274)">
                <circle id="Ellipse_1" data-name="Ellipse 1" cx="2.098" cy="2.098" r="2.098" transform="matrix(0.069, -0.998, 0.998, 0.069, 0, 4.187)" fill="#d3dae2"/>
                <path id="Tracé_67" data-name="Tracé 67" d="M2696.452,2705.582a2.17,2.17,0,1,1,.272-.018A2.144,2.144,0,0,1,2696.452,2705.582Zm.006-4.2a2.136,2.136,0,0,0-.258.016,2.032,2.032,0,1,0,2.269,1.762h0a2.033,2.033,0,0,0-2.011-1.778Z" transform="translate(-2694.217 -2701.179)" fill="#6b184e"/>
              </g>
              <g id="Groupe_75" data-name="Groupe 75" transform="translate(2.414 2.413)" opacity="0.3">
                <path id="Tracé_68" data-name="Tracé 68" d="M2700.984,2705.593a2.1,2.1,0,0,0-3.825,1.424,2.1,2.1,0,1,1,3.824-1.434S2700.984,2705.589,2700.984,2705.593Z" transform="translate(-2696.803 -2703.746)" fill="#6b184e"/>
              </g>
              <g id="Groupe_76" data-name="Groupe 76" transform="translate(3.693 3.693)">
                <circle id="Ellipse_2" data-name="Ellipse 2" cx="0.584" cy="0.584" r="0.584" transform="matrix(0.613, -0.79, 0.79, 0.613, 0, 0.922)" fill="#6b184e"/>
              </g>
              <g id="Groupe_77" data-name="Groupe 77" transform="translate(4.161 2.993)">
                <circle id="Ellipse_3" data-name="Ellipse 3" cx="0.25" cy="0.25" r="0.25" transform="translate(0 0.396) rotate(-52.172)" fill="#6b184e"/>
              </g>
              <g id="Groupe_78" data-name="Groupe 78" transform="translate(4.161 5.329)">
                <circle id="Ellipse_4" data-name="Ellipse 4" cx="0.25" cy="0.25" r="0.25" transform="translate(0 0.396) rotate(-52.172)" fill="#6b184e"/>
              </g>
              <g id="Groupe_79" data-name="Groupe 79" transform="translate(3.25 3.678)">
                <path id="Tracé_69" data-name="Tracé 69" d="M2728.461,2751.095a.25.25,0,1,1-.328.134A.251.251,0,0,1,2728.461,2751.095Z" transform="translate(-2728.114 -2751.075)" fill="#6b184e"/>
              </g>
              <g id="Groupe_80" data-name="Groupe 80" transform="translate(5.273 4.846)">
                <path id="Tracé_70" data-name="Tracé 70" d="M2804.173,2794.807a.25.25,0,1,1-.328.134A.249.249,0,0,1,2804.173,2794.807Z" transform="translate(-2803.825 -2794.788)" fill="#6b184e"/>
              </g>
              <g id="Groupe_81" data-name="Groupe 81" transform="translate(3.25 4.846)">
                <path id="Tracé_71" data-name="Tracé 71" d="M2728.214,2794.84a.25.25,0,1,1-.048.351A.251.251,0,0,1,2728.214,2794.84Z" transform="translate(-2728.115 -2794.789)" fill="#6b184e"/>
              </g>
              <g id="Groupe_82" data-name="Groupe 82" transform="translate(5.273 3.678)">
                <path id="Tracé_72" data-name="Tracé 72" d="M2803.927,2751.128a.25.25,0,1,1-.048.351A.25.25,0,0,1,2803.927,2751.128Z" transform="translate(-2803.827 -2751.077)" fill="#6b184e"/>
              </g>
              <g id="Groupe_83" data-name="Groupe 83" transform="translate(2.414 4.845)" opacity="0.55">
                <path id="Tracé_73" data-name="Tracé 73" d="M2699.162,2797.19a2.1,2.1,0,0,1-2.344-1.82,2.067,2.067,0,0,1,.011-.6,2.1,2.1,0,0,0,4.143,0c0,.024.008.048.01.072A2.1,2.1,0,0,1,2699.162,2797.19Z" transform="translate(-2696.801 -2794.77)" fill="#fff"/>
              </g>
              <g id="Groupe_84" data-name="Groupe 84" transform="translate(2.077 2.077)">
                <path id="Tracé_74" data-name="Tracé 74" d="M2686.629,2696.026a2.439,2.439,0,1,1,.306-.019A2.439,2.439,0,0,1,2686.629,2696.026Zm.005-4.2a1.721,1.721,0,0,0-.223.014,1.762,1.762,0,1,0,1.968,1.528h0a1.762,1.762,0,0,0-1.745-1.542Z" transform="translate(-2684.196 -2691.156)" fill="#6b184e"/>
              </g>
              <g id="Groupe_85" data-name="Groupe 85" transform="translate(0.619 0.487)" opacity="0.3">
                <path id="Tracé_75" data-name="Tracé 75" d="M2637.337,2634.4a1.239,1.239,0,0,0-1.927.3c-.228-1.808-4.161-1.313-3.934.5a1.366,1.366,0,0,0-1.85-.543h0a4.026,4.026,0,0,1,7.711-.252Z" transform="translate(-2629.626 -2631.652)" fill="#6b184e"/>
              </g>
            </g>
            <g id="Groupe_101" data-name="Groupe 101" transform="translate(22.876 26.853)">
              <g id="Groupe_87" data-name="Groupe 87" transform="translate(0.488 0.487)">
                <path id="Tracé_76" data-name="Tracé 76" d="M1318.683,2635.174a4.025,4.025,0,1,1-7.887-.52h0a4.025,4.025,0,0,1,7.887.521Z" transform="translate(-1310.664 -2631.652)" fill="#7c6b6a"/>
              </g>
              <g id="Groupe_88" data-name="Groupe 88">
                <path id="Tracé_77" data-name="Tracé 77" d="M1296.923,2622.439a4.516,4.516,0,1,1,.566-.036A4.589,4.589,0,0,1,1296.923,2622.439Zm.01-8.05a3.656,3.656,0,0,0-.449.028,3.529,3.529,0,1,0,.449-.028Z" transform="translate(-1292.414 -2613.414)" fill="#6b184e"/>
              </g>
              <g id="Groupe_89" data-name="Groupe 89" transform="translate(2.274 2.274)">
                <circle id="Ellipse_5" data-name="Ellipse 5" cx="2.098" cy="2.098" r="2.098" transform="translate(0 4.187) rotate(-86.049)" fill="#d3dae2"/>
                <path id="Tracé_78" data-name="Tracé 78" d="M1382.424,2705.582a2.17,2.17,0,1,1,.272-.018A2.131,2.131,0,0,1,1382.424,2705.582Zm0-4.2a2.091,2.091,0,0,0-.255.016,2.032,2.032,0,1,0,.255-.016Z" transform="translate(-1380.188 -2701.179)" fill="#6b184e"/>
              </g>
              <g id="Groupe_90" data-name="Groupe 90" transform="translate(2.414 2.413)" opacity="0.3">
                <path id="Tracé_79" data-name="Tracé 79" d="M1386.95,2705.593a2.1,2.1,0,0,0-3.825,1.424,2.1,2.1,0,1,1,3.824-1.434S1386.95,2705.589,1386.95,2705.593Z" transform="translate(-1382.769 -2703.746)" fill="#6b184e"/>
              </g>
              <g id="Groupe_91" data-name="Groupe 91" transform="translate(3.693 3.693)">
                <circle id="Ellipse_6" data-name="Ellipse 6" cx="0.584" cy="0.584" r="0.584" transform="matrix(0.613, -0.79, 0.79, 0.613, 0, 0.922)" fill="#6b184e"/>
              </g>
              <g id="Groupe_92" data-name="Groupe 92" transform="translate(4.161 2.993)">
                <circle id="Ellipse_7" data-name="Ellipse 7" cx="0.25" cy="0.25" r="0.25" transform="translate(0 0.396) rotate(-52.172)" fill="#6b184e"/>
              </g>
              <g id="Groupe_93" data-name="Groupe 93" transform="translate(4.161 5.329)">
                <circle id="Ellipse_8" data-name="Ellipse 8" cx="0.25" cy="0.25" r="0.25" transform="translate(0 0.396) rotate(-52.172)" fill="#6b184e"/>
              </g>
              <g id="Groupe_94" data-name="Groupe 94" transform="translate(3.25 3.678)">
                <path id="Tracé_80" data-name="Tracé 80" d="M1414.427,2751.095a.25.25,0,1,1-.328.134A.251.251,0,0,1,1414.427,2751.095Z" transform="translate(-1414.079 -2751.075)" fill="#6b184e"/>
              </g>
              <g id="Groupe_95" data-name="Groupe 95" transform="translate(5.252 4.825)">
                <circle id="Ellipse_9" data-name="Ellipse 9" cx="0.25" cy="0.25" r="0.25" transform="translate(0 0.499) rotate(-85.029)" fill="#6b184e"/>
              </g>
              <g id="Groupe_96" data-name="Groupe 96" transform="translate(3.147 4.742)">
                <circle id="Ellipse_10" data-name="Ellipse 10" cx="0.25" cy="0.25" r="0.25" transform="matrix(0.682, -0.731, 0.731, 0.682, 0, 0.366)" fill="#6b184e"/>
              </g>
              <g id="Groupe_97" data-name="Groupe 97" transform="translate(5.273 3.678)">
                <path id="Tracé_81" data-name="Tracé 81" d="M1489.893,2751.128a.25.25,0,1,1-.048.351A.251.251,0,0,1,1489.893,2751.128Z" transform="translate(-1489.794 -2751.077)" fill="#6b184e"/>
              </g>
              <g id="Groupe_98" data-name="Groupe 98" transform="translate(2.414 4.845)" opacity="0.55">
                <path id="Tracé_82" data-name="Tracé 82" d="M1385.128,2797.19a2.1,2.1,0,0,1-2.344-1.82,2.059,2.059,0,0,1,.011-.6,2.1,2.1,0,0,0,4.142,0c0,.024.008.048.011.072A2.1,2.1,0,0,1,1385.128,2797.19Z" transform="translate(-1382.767 -2794.77)" fill="#fff"/>
              </g>
              <g id="Groupe_99" data-name="Groupe 99" transform="translate(2.077 2.077)">
                <path id="Tracé_83" data-name="Tracé 83" d="M1372.6,2696.033a2.435,2.435,0,1,1,.306-.019A2.494,2.494,0,0,1,1372.6,2696.033Zm0-4.2a1.836,1.836,0,0,0-.221.014,1.761,1.761,0,1,0,.221-.014Z" transform="translate(-1370.169 -2691.162)" fill="#6b184e"/>
              </g>
              <g id="Groupe_100" data-name="Groupe 100" transform="translate(0.619 0.487)" opacity="0.3">
                <path id="Tracé_84" data-name="Tracé 84" d="M1323.3,2634.4a1.239,1.239,0,0,0-1.927.3c-.228-1.808-4.161-1.313-3.934.5a1.365,1.365,0,0,0-1.85-.543h0a4.026,4.026,0,0,1,7.711-.252Z" transform="translate(-1315.592 -2631.652)" fill="#6b184e"/>
              </g>
            </g>
            <g id="Groupe_102" data-name="Groupe 102" transform="translate(11.094 0.487)">
              <path id="Rectangle_16" data-name="Rectangle 16" d="M2.918,0H14.387a2.918,2.918,0,0,1,2.918,2.918v0a0,0,0,0,1,0,0H0a0,0,0,0,1,0,0v0A2.918,2.918,0,0,1,2.918,0Z" fill="#ffa829"/>
            </g>
            <g id="Groupe_103" data-name="Groupe 103" transform="translate(11.094 0.487)" opacity="0.55">
              <path id="Tracé_85" data-name="Tracé 85" d="M868.705,1628.112v.968a1.561,1.561,0,0,0-1.562-1.561H852.962a1.562,1.562,0,0,0-1.562,1.561v-.968a1.562,1.562,0,0,1,1.562-1.562h14.182A1.561,1.561,0,0,1,868.705,1628.112Z" transform="translate(-851.4 -1626.55)" fill="#fff"/>
            </g>
            <g id="Groupe_104" data-name="Groupe 104" transform="translate(10.607)">
              <path id="Tracé_86" data-name="Tracé 86" d="M850.968,1612.2H833.662a.487.487,0,0,1-.487-.487v-1.357a2.051,2.051,0,0,1,2.049-2.049h14.182a2.051,2.051,0,0,1,2.049,2.049v1.357A.487.487,0,0,1,850.968,1612.2Zm-16.818-.974h16.331v-.869a1.076,1.076,0,0,0-1.075-1.074H835.224a1.076,1.076,0,0,0-1.074,1.074Z" transform="translate(-833.175 -1608.303)" fill="#6b184e"/>
            </g>
            <g id="Groupe_105" data-name="Groupe 105" transform="translate(49.248 0.487)">
              <path id="Rectangle_17" data-name="Rectangle 17" d="M2.918,0H14.387a2.918,2.918,0,0,1,2.918,2.918v0a0,0,0,0,1,0,0H0a0,0,0,0,1,0,0v0A2.918,2.918,0,0,1,2.918,0Z" fill="#ffa829"/>
            </g>
            <g id="Groupe_106" data-name="Groupe 106" transform="translate(49.248 0.487)" opacity="0.55">
              <path id="Tracé_87" data-name="Tracé 87" d="M2296.831,1628.112v.968a1.561,1.561,0,0,0-1.562-1.561h-14.183a1.562,1.562,0,0,0-1.561,1.561v-.968a1.562,1.562,0,0,1,1.561-1.562h14.183A1.561,1.561,0,0,1,2296.831,1628.112Z" transform="translate(-2279.526 -1626.55)" fill="#fff"/>
            </g>
            <g id="Groupe_107" data-name="Groupe 107" transform="translate(48.761)">
              <path id="Tracé_88" data-name="Tracé 88" d="M2279.1,1612.2H2261.79a.487.487,0,0,1-.487-.487v-1.357a2.051,2.051,0,0,1,2.049-2.049h14.182a2.051,2.051,0,0,1,2.049,2.049v1.357A.487.487,0,0,1,2279.1,1612.2Zm-16.818-.974h16.331v-.869a1.075,1.075,0,0,0-1.074-1.074h-14.182a1.076,1.076,0,0,0-1.075,1.074Z" transform="translate(-2261.303 -1608.303)" fill="#6b184e"/>
            </g>
            <g id="Groupe_108" data-name="Groupe 108" transform="translate(65.188 6.375)" opacity="0.3">
              <path id="Tracé_89" data-name="Tracé 89" d="M2877.223,1849.107a1.1,1.1,0,0,1,1.1-1.1h6.865a1.1,1.1,0,0,0-1.1-1.07h-6.837a1.1,1.1,0,0,0-1.1,1.1v11.245h1.069Z" transform="translate(-2876.154 -1846.94)" fill="#6b184e"/>
            </g>
            <g id="Groupe_123" data-name="Groupe 123" transform="translate(12.191 26.852)">
              <g id="Groupe_109" data-name="Groupe 109" transform="translate(0.488 0.488)">
                <path id="Tracé_90" data-name="Tracé 90" d="M918.725,2635.174a4.025,4.025,0,1,1-7.886-.52h0a4.025,4.025,0,0,1,7.887.521Z" transform="translate(-910.706 -2631.652)" fill="#7c6b6a"/>
              </g>
              <g id="Groupe_110" data-name="Groupe 110">
                <path id="Tracé_91" data-name="Tracé 91" d="M896.967,2622.426a4.517,4.517,0,1,1,.566-.036A4.59,4.59,0,0,1,896.967,2622.426Zm.01-8.05a3.611,3.611,0,0,0-.449.028,3.528,3.528,0,1,0,.449-.028Z" transform="translate(-892.458 -2613.4)" fill="#6b184e"/>
              </g>
              <g id="Groupe_111" data-name="Groupe 111" transform="translate(1.545 1.545)">
                <circle id="Ellipse_11" data-name="Ellipse 11" cx="2.098" cy="2.098" r="2.098" transform="translate(0 2.968) rotate(-45)" fill="#d3dae2"/>
                <path id="Tracé_92" data-name="Tracé 92" d="M982.461,2705.582a2.176,2.176,0,1,1,.272-.018A2.133,2.133,0,0,1,982.461,2705.582Zm0-4.2a2.1,2.1,0,0,0-.255.016,2.032,2.032,0,1,0,2.269,1.762h0A2.035,2.035,0,0,0,982.464,2701.385Z" transform="translate(-979.495 -2700.449)" fill="#6b184e"/>
              </g>
              <g id="Groupe_112" data-name="Groupe 112" transform="translate(2.414 2.414)" opacity="0.3">
                <path id="Tracé_93" data-name="Tracé 93" d="M986.992,2705.593a2.1,2.1,0,0,0-3.825,1.424,2.1,2.1,0,1,1,3.824-1.434S986.992,2705.589,986.992,2705.593Z" transform="translate(-982.811 -2703.746)" fill="#6b184e"/>
              </g>
              <g id="Groupe_113" data-name="Groupe 113" transform="translate(3.693 3.693)">
                <circle id="Ellipse_12" data-name="Ellipse 12" cx="0.584" cy="0.584" r="0.584" transform="translate(0 0.922) rotate(-52.172)" fill="#6b184e"/>
              </g>
              <g id="Groupe_114" data-name="Groupe 114" transform="translate(4.161 2.993)">
                <circle id="Ellipse_13" data-name="Ellipse 13" cx="0.25" cy="0.25" r="0.25" transform="translate(0 0.396) rotate(-52.172)" fill="#6b184e"/>
              </g>
              <g id="Groupe_115" data-name="Groupe 115" transform="translate(4.161 5.329)">
                <circle id="Ellipse_14" data-name="Ellipse 14" cx="0.25" cy="0.25" r="0.25" transform="translate(0 0.396) rotate(-52.172)" fill="#6b184e"/>
              </g>
              <g id="Groupe_116" data-name="Groupe 116" transform="translate(3.25 3.678)">
                <path id="Tracé_94" data-name="Tracé 94" d="M1014.469,2751.095a.25.25,0,1,1-.328.134A.25.25,0,0,1,1014.469,2751.095Z" transform="translate(-1014.122 -2751.075)" fill="#6b184e"/>
              </g>
              <g id="Groupe_117" data-name="Groupe 117" transform="translate(5.273 4.846)">
                <path id="Tracé_95" data-name="Tracé 95" d="M1090.181,2794.807a.25.25,0,1,1-.328.134A.25.25,0,0,1,1090.181,2794.807Z" transform="translate(-1089.834 -2794.788)" fill="#6b184e"/>
              </g>
              <g id="Groupe_118" data-name="Groupe 118" transform="translate(3.25 4.846)">
                <path id="Tracé_96" data-name="Tracé 96" d="M1014.223,2794.84a.25.25,0,1,1-.048.351A.251.251,0,0,1,1014.223,2794.84Z" transform="translate(-1014.123 -2794.789)" fill="#6b184e"/>
              </g>
              <g id="Groupe_119" data-name="Groupe 119" transform="translate(5.273 3.678)">
                <path id="Tracé_97" data-name="Tracé 97" d="M1089.935,2751.128a.25.25,0,1,1-.048.351A.25.25,0,0,1,1089.935,2751.128Z" transform="translate(-1089.836 -2751.077)" fill="#6b184e"/>
              </g>
              <g id="Groupe_120" data-name="Groupe 120" transform="translate(2.414 4.845)" opacity="0.55">
                <path id="Tracé_98" data-name="Tracé 98" d="M985.17,2797.19a2.1,2.1,0,0,1-2.344-1.82,2.069,2.069,0,0,1,.011-.6,2.1,2.1,0,0,0,4.142,0c0,.024.008.048.011.072A2.1,2.1,0,0,1,985.17,2797.19Z" transform="translate(-982.81 -2794.77)" fill="#fff"/>
              </g>
              <g id="Groupe_121" data-name="Groupe 121" transform="translate(2.077 2.077)">
                <path id="Tracé_99" data-name="Tracé 99" d="M972.638,2696.026a2.436,2.436,0,1,1,.306-.019A2.438,2.438,0,0,1,972.638,2696.026Zm.005-4.2a1.728,1.728,0,0,0-.224.014,1.762,1.762,0,1,0,1.968,1.528h0a1.762,1.762,0,0,0-1.745-1.542Z" transform="translate(-970.204 -2691.156)" fill="#6b184e"/>
              </g>
              <g id="Groupe_122" data-name="Groupe 122" transform="translate(0.619 0.488)" opacity="0.3">
                <path id="Tracé_100" data-name="Tracé 100" d="M923.345,2634.4a1.239,1.239,0,0,0-1.927.3c-.228-1.808-4.161-1.313-3.934.5a1.366,1.366,0,0,0-1.85-.543h0a4.026,4.026,0,0,1,7.711-.252Z" transform="translate(-915.634 -2631.652)" fill="#6b184e"/>
              </g>
            </g>
          </g>
          <g id="Groupe_125" data-name="Groupe 125" transform="translate(2.139 34.886)">
            <path id="Tracé_101" data-name="Tracé 101" d="M582.735,2914.778a40.481,40.481,0,0,1-5.054.33c-1.685.033-3.37.015-5.054,0l-2.527-.014H509.445l-1.264.011-1.264.019q-1.264.015-2.527-.044a17.281,17.281,0,0,1-2.527-.3.159.159,0,0,1,0-.312,17.279,17.279,0,0,1,2.527-.3q1.264-.06,2.527-.045l1.264.019,1.264.011H570.1l2.527-.015c1.685-.018,3.37-.036,5.054,0a40.3,40.3,0,0,1,5.054.33.157.157,0,0,1,0,.312Z" transform="translate(-501.737 -2914.118)" fill="#6b184e"/>
          </g>
        </g>
      </g>
      <g id="Groupe_318" data-name="Groupe 318" transform="translate(497.389 61.533)">
        <g id="Groupe_316" data-name="Groupe 316" transform="translate(0 0.757)">
          <g id="Groupe_315" data-name="Groupe 315">
            <path id="Tracé_398" data-name="Tracé 398" d="M253.825,126.262a28.05,28.05,0,0,1,4.713-6.989,30.018,30.018,0,0,1,5.937-4.967,28.267,28.267,0,0,1,12.913-4.313,2.124,2.124,0,0,1,1.305.359,2.049,2.049,0,0,1,.68.826,1.685,1.685,0,0,1,.133.918,1.212,1.212,0,0,1-.306.691q-.239.346-.881,1.307t-1.528,2.342q-.9,1.386-1.958,3.1t-2.171,3.581q-1.1,1.865-2.156,3.795t-1.917,3.727q-.865,1.8-1.478,3.382a13.849,13.849,0,0,0-.8,2.783,2.416,2.416,0,0,0,.161,1.784,1.891,1.891,0,0,0,.212.12.56.56,0,0,0,.24.066,1.681,1.681,0,0,0,.745-.2c.267-.133.5-.244.691-.334a2.357,2.357,0,0,1,.813-.319c.186-.017.261.178.227.586a3.85,3.85,0,0,1-.28,1.478,2.115,2.115,0,0,1-.76,1,3.616,3.616,0,0,1-2,.719,2.522,2.522,0,0,1-.958-.186,4.649,4.649,0,0,1-.959-.56,3.2,3.2,0,0,1-1.224-2.064,8.67,8.67,0,0,1,.053-3.021,21.715,21.715,0,0,1,.918-3.489q.653-1.89,1.559-3.887t1.985-4.033q1.073-2.039,2.182-3.941t2.157-3.594q1.051-1.69,1.9-3v.028l.293-.453a.518.518,0,0,1-.238.053,16.624,16.624,0,0,0-4.009,1.358,24.488,24.488,0,0,0-3.806,2.291,30.617,30.617,0,0,0-3.434,2.914,31.516,31.516,0,0,0-2.877,3.222,26.665,26.665,0,0,0-2.156,3.22,13.517,13.517,0,0,0-1.266,2.916,3.728,3.728,0,0,1-1.3-.28,2.945,2.945,0,0,1-1.025-.678,1.992,1.992,0,0,1-.533-1A2.013,2.013,0,0,1,253.825,126.262Z" transform="translate(-253.593 -109.994)" fill="#c87031"/>
            <path id="Tracé_399" data-name="Tracé 399" d="M277.7,126.227q-.507.693-1.331,1.677a22.669,22.669,0,0,1-1.81,1.917,13.488,13.488,0,0,1-2.011,1.585,3.633,3.633,0,0,1-1.93.652,2.867,2.867,0,0,1-1.065-.2,1.85,1.85,0,0,1-.824-.627,2.517,2.517,0,0,1-.439-1.1,4.341,4.341,0,0,1,.066-1.609,13.842,13.842,0,0,1,.466-1.572,17.627,17.627,0,0,1,.691-1.624c.276-.569.59-1.185.946-1.851s.764-1.416,1.226-2.249a8.4,8.4,0,0,0,.518-1,3.732,3.732,0,0,0,.253-.759l-1.279,1.091q-1.118.935-2.064,1.865t-1.93,2.05a35.562,35.562,0,0,0-1.624,3.369,25.541,25.541,0,0,0-1.172,3.474c-.071.2-.257.284-.558.267a2.689,2.689,0,0,1-.948-.253,3.481,3.481,0,0,1-.877-.573.857.857,0,0,1-.359-.691,18.329,18.329,0,0,1,.625-2.33q.386-1.132.864-2.236c.321-.736.661-1.465,1.025-2.184s.732-1.442,1.106-2.169q.639-1.279,1.252-2.49t1.091-2.33a1.036,1.036,0,0,1,.785-.013,2.988,2.988,0,0,1,.892.466,3.242,3.242,0,0,1,.745.787,2.334,2.334,0,0,1,.4.971,15.742,15.742,0,0,1,2.315-1.624,5.512,5.512,0,0,1,2.345-.745,1.081,1.081,0,0,1,.73.332,3.2,3.2,0,0,1,.625.813,2.99,2.99,0,0,1,.347,1.038,1.778,1.778,0,0,1-.107.984q-.69,1.36-1.358,2.544t-1.144,2.035c-.285.5-.546.956-.787,1.373s-.454.83-.64,1.237-.355.824-.505,1.252-.287.886-.413,1.382a.647.647,0,0,1,.186-.158H272a11.4,11.4,0,0,0,1.97-1.358,16.034,16.034,0,0,0,2.45-2.61q.346-.425.653-.826t.6-.8l.507-.774c.071-.086.2-.109.4-.066a1.485,1.485,0,0,1,.545.253,1.432,1.432,0,0,1,.4.439.35.35,0,0,1-.013.439l.028-.054-1.812,2.557Z" transform="translate(-246.528 -104.58)" fill="#c87031"/>
            <path id="Tracé_400" data-name="Tracé 400" d="M268.566,129.1a6.687,6.687,0,0,1,.851-2.182,5.724,5.724,0,0,1,1.519-1.7l.745-.958q.9-1.279,1.851-2.531t1.957-2.422a3.791,3.791,0,0,0,.372-.426c.107-.141.222-.284.347-.426q.558-.718,1.292-1.543a18.282,18.282,0,0,1,2.062-1.917,10.644,10.644,0,0,1,.905.6,4.251,4.251,0,0,1,.892.852,1.9,1.9,0,0,1,.413.971.983.983,0,0,1-.507.907l.081-.028a8.577,8.577,0,0,0-.759.706c-.152.169-.317.368-.492.6l-.426.533a7.218,7.218,0,0,0-1.052,1.97,13.9,13.9,0,0,0-.546,2.05,11.306,11.306,0,0,0-.16,1.13c-.038.383-.071.768-.107,1.159l-.186,1.6a6.825,6.825,0,0,1-.665,2.2,5.817,5.817,0,0,1-1.266,1.69,5.338,5.338,0,0,1-1.7,1.053,4.845,4.845,0,0,1-1.985.3,4.53,4.53,0,0,1-1.758-.453,3.2,3.2,0,0,1-1.13-.931,3.044,3.044,0,0,1-.546-1.277A4.389,4.389,0,0,1,268.566,129.1Zm5.937-4.925a3.87,3.87,0,0,1,.079-.439q.053-.225.107-.439l-1.119,1.491-.024.026a6.509,6.509,0,0,1,.105.732,7.459,7.459,0,0,1,.026,1.093,6.289,6.289,0,0,1-.145,1.091,1.421,1.421,0,0,1-.389.759.692.692,0,0,0-.531-.492,1.274,1.274,0,0,0-.774.12,2.387,2.387,0,0,0-.715.518,1.479,1.479,0,0,0-.4.678,1.1,1.1,0,0,0,0,.334,2.558,2.558,0,0,0,.081.387,1.251,1.251,0,0,0,.558.625,2.3,2.3,0,0,0,.745.252,1.1,1.1,0,0,0,.721-.131,2.039,2.039,0,0,0,.571-.507,3.044,3.044,0,0,0,.426-.745,4.268,4.268,0,0,0,.255-.905c.068-.638.122-1.314.158-2.022.036-.374.068-.764.092-1.174A9.034,9.034,0,0,1,274.5,124.171Z" transform="translate(-240.51 -105.613)" fill="#c87031"/>
            <path id="Tracé_401" data-name="Tracé 401" d="M277.807,121.542a.984.984,0,0,1-.783,0,.713.713,0,0,1-.389-.466,1.022,1.022,0,0,1,.094-.68,1.656,1.656,0,0,1,.625-.665q1.093-.693,2.144-1.251c.7-.374,1.408-.71,2.116-1.012a50.52,50.52,0,0,0,3.01-5.939,1.2,1.2,0,0,1,1,.015,2.963,2.963,0,0,1,1.038.706,3.223,3.223,0,0,1,.7,1.1,1.591,1.591,0,0,1,0,1.211l-.772,1.358a19.987,19.987,0,0,1,3.513-.319c.178,0,.407.006.695.013s.513.023.691.041a2.018,2.018,0,0,1-.094.864,3.679,3.679,0,0,1-.411.879,3.376,3.376,0,0,1-.6.706,1,1,0,0,1-.652.293c-.178-.017-.364-.032-.56-.039s-.389-.013-.584-.013a16.537,16.537,0,0,0-1.838.105,18.174,18.174,0,0,0-1.891.321q-.372.637-.759,1.251c-.257.407-.509.8-.759,1.172l-.212.346q-.321.507-.881,1.386t-1.211,1.957q-.653,1.079-1.343,2.263t-1.279,2.291c-.392.736-.719,1.414-.986,2.035a6.3,6.3,0,0,0-.479,1.491.248.248,0,0,0-.054.133.107.107,0,0,1-.026.081h.188a5.063,5.063,0,0,0,1.515-.866,12.634,12.634,0,0,0,1.44-1.359,19.815,19.815,0,0,0,1.329-1.622q.639-.865,1.226-1.692h-.028c.107-.16.223-.314.347-.466s.24-.3.345-.439c.069-.105.2-.133.374-.081a1.746,1.746,0,0,1,.518.267,1.459,1.459,0,0,1,.4.441.419.419,0,0,1,.039.438l-.877,1.2q-1.093,1.518-2.358,3.076a19.538,19.538,0,0,1-2.676,2.73,6.2,6.2,0,0,1-1.436.931,6.708,6.708,0,0,1-.959.361,3.616,3.616,0,0,1-1.012.146,1.749,1.749,0,0,1-.958-.295,1.707,1.707,0,0,1-.573-.7,2.954,2.954,0,0,1-.24-1.012,5.745,5.745,0,0,1,.068-1.266c.034-.2.081-.4.131-.625a5.047,5.047,0,0,1,.186-.6,24.378,24.378,0,0,1,1.04-2.715q.611-1.358,1.331-2.689t1.5-2.636q.786-1.3,1.583-2.557l.347-.531-1.784.905Z" transform="translate(-236.147 -108.736)" fill="#c87031"/>
            <path id="Tracé_402" data-name="Tracé 402" d="M291.385,120.79a.35.35,0,0,1-.2.252,1.276,1.276,0,0,1-.411.133,2.857,2.857,0,0,1-.494.041,1.071,1.071,0,0,1-.438-.081,4.153,4.153,0,0,1,.691.56,3.189,3.189,0,0,1,.533.706,2.527,2.527,0,0,1,.28.785,1.378,1.378,0,0,1-.094.772c-.071.124-.152.261-.24.413s-.178.306-.267.466q-.293.507-.6,1.091c-.2.392-.394.774-.571,1.145s-.334.725-.466,1.052a3.692,3.692,0,0,0-.253.839.087.087,0,0,1-.039.079.354.354,0,0,0-.068.054h.186a4.858,4.858,0,0,0,1.545-.879,13.269,13.269,0,0,0,1.45-1.4,21.468,21.468,0,0,0,1.359-1.677q.653-.893,1.236-1.716a2.481,2.481,0,0,0,.321-.374c.069-.105.141-.222.212-.347.071-.086.2-.109.4-.066a1.586,1.586,0,0,1,.558.253,1.535,1.535,0,0,1,.428.439.344.344,0,0,1,0,.439l-.772,1.065v.026q-1.146,1.572-2.383,3.1a18.392,18.392,0,0,1-2.757,2.756c-.161.141-.361.3-.6.466a6.717,6.717,0,0,1-.8.479,5.122,5.122,0,0,1-.944.372,3.166,3.166,0,0,1-1.037.122,2.218,2.218,0,0,1-1.8-.907,2.958,2.958,0,0,1-.387-2,18.927,18.927,0,0,1-2.422,1.93,4.484,4.484,0,0,1-2.343.839,3.137,3.137,0,0,1-1.611-.573,2.971,2.971,0,0,1-.892-1.106,3.741,3.741,0,0,1-.332-1.371,7.64,7.64,0,0,1,.039-1.373,6.418,6.418,0,0,1,.24-.958,10.956,10.956,0,0,1,.879-2.156,18.819,18.819,0,0,1,1.465-2.343,23.415,23.415,0,0,1,1.876-2.265,16.788,16.788,0,0,1,2.171-1.943,11.462,11.462,0,0,1,2.33-1.358,5.978,5.978,0,0,1,2.357-.505,4.022,4.022,0,0,1,.665.053,6.322,6.322,0,0,1,.693.161,1.884,1.884,0,0,1,.973.678,2.775,2.775,0,0,1,.452,1.091,5.5,5.5,0,0,1,.081,1.331A8.2,8.2,0,0,1,291.385,120.79Zm-3.113,0a.909.909,0,0,1,.623-.054,2.667,2.667,0,0,1,.732.293.269.269,0,0,1-.079-.293.421.421,0,0,0,.015-.186.51.51,0,0,1,.013-.212c.017-.178.026-.364.026-.56a1.773,1.773,0,0,0-.081-.546.813.813,0,0,0-.772-.6,3.361,3.361,0,0,0-2.024.706,10.982,10.982,0,0,0-2,1.851,20,20,0,0,0-2.98,4.711,5.718,5.718,0,0,0-.267.732,5.3,5.3,0,0,0-.188.866,3.3,3.3,0,0,0-.051.56.818.818,0,0,0,.118.453.549.549,0,0,0,.361.238,1.514,1.514,0,0,0,.665-.053,2.94,2.94,0,0,0,1.012-.612q.611-.5,1.292-1.185c.453-.453.894-.937,1.329-1.451s.8-.976,1.106-1.384q.4-.8.732-1.558a8.353,8.353,0,0,0,.466-1.29Z" transform="translate(-232.739 -104.655)" fill="#c87031"/>
          </g>
        </g>
        <g id="Groupe_317" data-name="Groupe 317" transform="translate(0.717)">
          <path id="Tracé_403" data-name="Tracé 403" d="M254.207,125.858a28.117,28.117,0,0,1,4.713-6.989,30,30,0,0,1,5.937-4.965,28.267,28.267,0,0,1,12.913-4.313,2.124,2.124,0,0,1,1.3.359,2.043,2.043,0,0,1,.68.824,1.693,1.693,0,0,1,.133.92,1.219,1.219,0,0,1-.306.691c-.161.231-.453.667-.881,1.305s-.935,1.42-1.528,2.343-1.249,1.957-1.958,3.1-1.433,2.338-2.171,3.581-1.455,2.507-2.156,3.795-1.341,2.529-1.917,3.727-1.07,2.325-1.478,3.382a13.78,13.78,0,0,0-.8,2.783,2.41,2.41,0,0,0,.161,1.782,1.634,1.634,0,0,0,.212.12.534.534,0,0,0,.24.066,1.68,1.68,0,0,0,.745-.2c.267-.133.5-.242.691-.332a2.357,2.357,0,0,1,.813-.319c.186-.017.261.178.227.586a3.857,3.857,0,0,1-.28,1.478,2.124,2.124,0,0,1-.76,1,3.621,3.621,0,0,1-2,.719,2.488,2.488,0,0,1-.958-.188,4.553,4.553,0,0,1-.96-.558,3.2,3.2,0,0,1-1.224-2.064,8.681,8.681,0,0,1,.053-3.023,21.743,21.743,0,0,1,.918-3.487q.653-1.893,1.557-3.889t1.985-4.033q1.076-2.036,2.184-3.939t2.158-3.6q1.051-1.69,1.9-2.995v.028l.293-.454a.519.519,0,0,1-.238.054,16.625,16.625,0,0,0-4.009,1.358,24.623,24.623,0,0,0-3.806,2.289,30.627,30.627,0,0,0-3.434,2.916,31.325,31.325,0,0,0-2.877,3.222,26.68,26.68,0,0,0-2.156,3.22,13.474,13.474,0,0,0-1.266,2.916,3.718,3.718,0,0,1-1.3-.28,2.945,2.945,0,0,1-1.025-.678,1.9,1.9,0,0,1-.334-2.265Z" transform="translate(-253.975 -109.591)" fill="#fff"/>
          <path id="Tracé_404" data-name="Tracé 404" d="M278.082,125.824q-.507.69-1.331,1.677a22.985,22.985,0,0,1-1.81,1.917A13.348,13.348,0,0,1,272.93,131a3.62,3.62,0,0,1-1.93.653,2.86,2.86,0,0,1-1.065-.2,1.864,1.864,0,0,1-.824-.627,2.518,2.518,0,0,1-.441-1.1,4.4,4.4,0,0,1,.068-1.611,13.813,13.813,0,0,1,.466-1.57,17.619,17.619,0,0,1,.691-1.624c.276-.569.59-1.185.946-1.851s.764-1.416,1.226-2.249a8.128,8.128,0,0,0,.516-1,3.514,3.514,0,0,0,.253-.759l-1.277,1.091q-1.118.932-2.064,1.865t-1.93,2.05a36.031,36.031,0,0,0-1.626,3.369,25.44,25.44,0,0,0-1.17,3.474c-.071.2-.257.284-.558.267a2.689,2.689,0,0,1-.948-.253,3.48,3.48,0,0,1-.877-.573.87.87,0,0,1-.361-.693,18.694,18.694,0,0,1,.627-2.328q.386-1.132.864-2.236c.321-.736.661-1.465,1.025-2.184s.732-1.442,1.106-2.171q.639-1.276,1.252-2.49t1.091-2.328a1.027,1.027,0,0,1,.785-.013,2.945,2.945,0,0,1,.892.466,3.267,3.267,0,0,1,.745.785,2.357,2.357,0,0,1,.4.973,15.6,15.6,0,0,1,2.315-1.624,5.49,5.49,0,0,1,2.345-.747,1.083,1.083,0,0,1,.73.334,3.19,3.19,0,0,1,.625.811,3.013,3.013,0,0,1,.347,1.04,1.778,1.778,0,0,1-.107.984q-.69,1.358-1.358,2.542t-1.144,2.037c-.285.5-.546.954-.787,1.371s-.454.83-.64,1.237-.355.826-.505,1.252-.287.888-.413,1.384a.642.642,0,0,1,.186-.16h-.026a11.3,11.3,0,0,0,1.97-1.358,15.88,15.88,0,0,0,2.45-2.61q.346-.425.653-.824t.6-.8l.507-.774c.071-.088.2-.111.4-.066a1.512,1.512,0,0,1,.545.252,1.458,1.458,0,0,1,.4.441.348.348,0,0,1-.013.438l.028-.053-1.812,2.557Z" transform="translate(-246.911 -104.178)" fill="#fff"/>
          <path id="Tracé_405" data-name="Tracé 405" d="M268.948,128.693a6.7,6.7,0,0,1,.851-2.184,5.74,5.74,0,0,1,1.519-1.7l.745-.96q.9-1.276,1.851-2.529t1.957-2.422a3.971,3.971,0,0,0,.372-.426c.107-.141.222-.284.347-.426q.558-.718,1.292-1.543a18.269,18.269,0,0,1,2.062-1.917,10.661,10.661,0,0,1,.905.6,4.255,4.255,0,0,1,.892.852,1.9,1.9,0,0,1,.413.971.979.979,0,0,1-.507.905l.081-.026a8.307,8.307,0,0,0-.759.706c-.152.169-.317.368-.492.6l-.426.533a7.22,7.22,0,0,0-1.052,1.97,13.843,13.843,0,0,0-.546,2.05,11.27,11.27,0,0,0-.16,1.13c-.038.383-.071.768-.107,1.159l-.186,1.6a6.845,6.845,0,0,1-.665,2.2,5.847,5.847,0,0,1-1.266,1.692,5.353,5.353,0,0,1-1.7,1.051,4.816,4.816,0,0,1-1.985.306,4.53,4.53,0,0,1-1.758-.453,3.2,3.2,0,0,1-1.13-.931,3.052,3.052,0,0,1-.546-1.279A4.377,4.377,0,0,1,268.948,128.693Zm5.937-4.925a3.857,3.857,0,0,1,.079-.439q.054-.225.107-.439l-1.119,1.491-.024.026a6.437,6.437,0,0,1,.105.732,7.459,7.459,0,0,1,.026,1.093,6.3,6.3,0,0,1-.145,1.091,1.428,1.428,0,0,1-.389.759.689.689,0,0,0-.531-.492,1.26,1.26,0,0,0-.774.12,2.385,2.385,0,0,0-.717.518,1.481,1.481,0,0,0-.4.678,1.1,1.1,0,0,0,0,.334,2.493,2.493,0,0,0,.081.385,1.247,1.247,0,0,0,.558.627,2.3,2.3,0,0,0,.745.252,1.088,1.088,0,0,0,.719-.133,2.039,2.039,0,0,0,.573-.505,3.044,3.044,0,0,0,.426-.745,4.137,4.137,0,0,0,.253-.907c.07-.637.124-1.313.16-2.022q.053-.558.092-1.172A9.058,9.058,0,0,1,274.885,123.768Z" transform="translate(-240.892 -105.21)" fill="#fff"/>
          <path id="Tracé_406" data-name="Tracé 406" d="M278.189,121.139a.984.984,0,0,1-.783,0,.722.722,0,0,1-.389-.466,1.01,1.01,0,0,1,.094-.68,1.656,1.656,0,0,1,.625-.665q1.093-.693,2.144-1.251c.7-.374,1.408-.71,2.116-1.012a50.521,50.521,0,0,0,3.01-5.939,1.2,1.2,0,0,1,1,.015,2.959,2.959,0,0,1,1.037.7,3.256,3.256,0,0,1,.706,1.106,1.591,1.591,0,0,1,0,1.211l-.772,1.358a19.988,19.988,0,0,1,3.513-.319c.178,0,.407.006.695.013s.513.023.691.039a2.025,2.025,0,0,1-.094.866,3.716,3.716,0,0,1-.411.879,3.375,3.375,0,0,1-.6.706,1,1,0,0,1-.652.293c-.178-.017-.364-.032-.56-.041s-.391-.011-.584-.011a16.532,16.532,0,0,0-1.838.105,18.672,18.672,0,0,0-1.891.319q-.372.639-.759,1.252c-.259.407-.509.8-.759,1.17l-.212.347q-.321.5-.881,1.384t-1.211,1.957q-.653,1.082-1.343,2.265t-1.279,2.289c-.392.738-.719,1.416-.986,2.037a6.3,6.3,0,0,0-.479,1.491.243.243,0,0,0-.054.133.116.116,0,0,1-.026.081h.186a5.048,5.048,0,0,0,1.517-.866,12.47,12.47,0,0,0,1.438-1.359,19.486,19.486,0,0,0,1.331-1.624q.639-.865,1.226-1.69h-.028c.107-.16.223-.315.347-.466s.24-.3.345-.439c.069-.107.2-.133.374-.081a1.724,1.724,0,0,1,.518.267,1.432,1.432,0,0,1,.4.439.422.422,0,0,1,.039.439l-.877,1.2q-1.093,1.518-2.358,3.076a19.535,19.535,0,0,1-2.676,2.73,6.2,6.2,0,0,1-1.436.931,6.7,6.7,0,0,1-.96.359,3.616,3.616,0,0,1-1.012.146,1.749,1.749,0,0,1-.958-.293,1.7,1.7,0,0,1-.573-.706,2.947,2.947,0,0,1-.24-1.012,5.728,5.728,0,0,1,.068-1.264c.034-.2.079-.4.131-.625a4.874,4.874,0,0,1,.186-.6,24.34,24.34,0,0,1,1.04-2.713q.611-1.36,1.331-2.689t1.5-2.636q.786-1.307,1.583-2.557l.347-.531-1.784.905Z" transform="translate(-236.529 -108.333)" fill="#fff"/>
          <path id="Tracé_407" data-name="Tracé 407" d="M291.767,120.385a.35.35,0,0,1-.2.253,1.323,1.323,0,0,1-.411.133,3.058,3.058,0,0,1-.494.039,1.1,1.1,0,0,1-.437-.079,4.244,4.244,0,0,1,.691.558,3.276,3.276,0,0,1,.533.706,2.5,2.5,0,0,1,.278.787,1.363,1.363,0,0,1-.092.772c-.071.124-.152.261-.24.411s-.178.308-.267.466q-.293.507-.6,1.093c-.2.391-.394.772-.571,1.145s-.334.723-.466,1.052a3.694,3.694,0,0,0-.253.839.087.087,0,0,1-.039.079.354.354,0,0,0-.068.054h.186a4.895,4.895,0,0,0,1.545-.879,13.447,13.447,0,0,0,1.45-1.4q.7-.786,1.359-1.677t1.236-1.718a2.476,2.476,0,0,0,.321-.372c.069-.107.141-.222.212-.347.071-.088.2-.111.4-.066a1.616,1.616,0,0,1,.558.252,1.565,1.565,0,0,1,.428.441.341.341,0,0,1,0,.438l-.772,1.065v.028q-1.146,1.572-2.383,3.1a18.486,18.486,0,0,1-2.756,2.756c-.161.141-.361.3-.6.466a6.723,6.723,0,0,1-.8.479,5.258,5.258,0,0,1-.945.372,3.164,3.164,0,0,1-1.036.12,2.212,2.212,0,0,1-1.8-.905,2.958,2.958,0,0,1-.387-2,19.086,19.086,0,0,1-2.422,1.93,4.48,4.48,0,0,1-2.343.837,3.119,3.119,0,0,1-1.611-.571,2.97,2.97,0,0,1-.892-1.106,3.741,3.741,0,0,1-.332-1.371,7.632,7.632,0,0,1,.039-1.373,6.356,6.356,0,0,1,.24-.958,10.97,10.97,0,0,1,.879-2.157,18.83,18.83,0,0,1,1.465-2.343,23.394,23.394,0,0,1,1.876-2.263,16.784,16.784,0,0,1,2.171-1.943,11.46,11.46,0,0,1,2.33-1.358,5.978,5.978,0,0,1,2.356-.505,4.021,4.021,0,0,1,.665.053,6.286,6.286,0,0,1,.693.16,1.887,1.887,0,0,1,.973.68,2.776,2.776,0,0,1,.453,1.091,5.5,5.5,0,0,1,.081,1.331A8.171,8.171,0,0,1,291.767,120.385Zm-3.113,0a.92.92,0,0,1,.623-.053,2.553,2.553,0,0,1,.732.293.269.269,0,0,1-.079-.293.426.426,0,0,0,.015-.186.516.516,0,0,1,.013-.214c.017-.177.026-.364.026-.558a1.772,1.772,0,0,0-.081-.546.813.813,0,0,0-.772-.6,3.37,3.37,0,0,0-2.024.7,11.114,11.114,0,0,0-2,1.851,20.152,20.152,0,0,0-2.982,4.713,6.048,6.048,0,0,0-.265.732,5.293,5.293,0,0,0-.188.866,3.272,3.272,0,0,0-.051.558.819.819,0,0,0,.118.454.549.549,0,0,0,.361.238,1.514,1.514,0,0,0,.665-.053,3,3,0,0,0,1.012-.612q.611-.507,1.292-1.185c.453-.454.894-.937,1.329-1.451s.8-.976,1.106-1.384q.4-.8.732-1.558a8.572,8.572,0,0,0,.466-1.292Z" transform="translate(-233.121 -104.252)" fill="#fff"/>
        </g>
      </g>
    </g>
  </g>
</svg>
