<svg xmlns="http://www.w3.org/2000/svg" width="62.849" height="16.548" viewBox="0 0 62.849 16.548">
  <g id="icon_country" transform="translate(-527.593 -59.636)" style="isolation: isolate">
    <path id="Tracé_408" data-name="Tracé 408" d="M538.153,70.071a3.116,3.116,0,0,0,.007-.909,2.6,2.6,0,0,0-.217-.755,1.409,1.409,0,0,0-.378-.5.68.68,0,0,0-.475-.168.587.587,0,0,1-.252,0h-.028a.5.5,0,0,1-.414-.076.456.456,0,0,1-.147-.316q-1.022,1.678-1.932,3.329t-1.679,3.217v-.014c-.057.113-.15.126-.281.042a1.7,1.7,0,0,1-.4-.384,2.649,2.649,0,0,1-.336-.56.641.641,0,0,1-.062-.482q.434-1.119,1.1-2.469t1.442-2.756q.771-1.4,1.6-2.783t1.582-2.539a14.237,14.237,0,0,0-1.56,1.2,20.667,20.667,0,0,0-1.492,1.455q-.712.77-1.33,1.58t-1.078,1.567a12.229,12.229,0,0,0-.749,1.406,3.694,3.694,0,0,0-.329,1.111c-.018.159-.111.222-.279.19a1.23,1.23,0,0,1-.532-.28,2.14,2.14,0,0,1-.491-.6,1.144,1.144,0,0,1-.139-.777,1.739,1.739,0,0,1,.168-.517,18.41,18.41,0,0,1,2.687-4.035,18.085,18.085,0,0,1,1.772-1.763,13.68,13.68,0,0,1,1.98-1.434,11.142,11.142,0,0,1,2.136-.986,8.278,8.278,0,0,1,2.247-.427h.014a3.166,3.166,0,0,1,1.3.245,2.258,2.258,0,0,1,.875.664,2.291,2.291,0,0,1,.442.966,3.147,3.147,0,0,1,.013,1.147,2.227,2.227,0,0,1-.07.336c-.027.092-.056.186-.084.279a6.457,6.457,0,0,1-.692,1.406,6.577,6.577,0,0,1-.917,1.106,6.39,6.39,0,0,1-1.078.832,8.43,8.43,0,0,1-1.149.587,3.672,3.672,0,0,1,.532.567,3.968,3.968,0,0,1,.413.678,3.329,3.329,0,0,1,.259.749,3.045,3.045,0,0,1,.071.761,6,6,0,0,1-.973,2.54,7.6,7.6,0,0,1-1.953,1.979,9.171,9.171,0,0,1-2.675,1.272,10.478,10.478,0,0,1-3.121.434,5.477,5.477,0,0,1-1.61-.259,4.01,4.01,0,0,1-1.295-.678,2.894,2.894,0,0,1-.813-1.008,2.023,2.023,0,0,1-.161-1.233,2.661,2.661,0,0,1,.406-.979,5.487,5.487,0,0,1,.826-1.009,2.679,2.679,0,0,1,.484.07c.219.047.44.106.665.175a4.353,4.353,0,0,1,.6.232c.172.084.263.163.272.238a4.136,4.136,0,0,0-.951.8,1.721,1.721,0,0,0-.378.7,1.024,1.024,0,0,0,.1.645,1.492,1.492,0,0,0,.455.532,2.425,2.425,0,0,0,.734.356,3.186,3.186,0,0,0,.939.133,7.189,7.189,0,0,0,4.081-1.3,6.242,6.242,0,0,0,1.511-1.518A4.648,4.648,0,0,0,538.153,70.071Zm2-9.231a3.8,3.8,0,0,0-.888.14,5.167,5.167,0,0,0-.931.364,2.439,2.439,0,0,1,.363.316,2.022,2.022,0,0,1,.309.413,1.468,1.468,0,0,1,.168.469.745.745,0,0,1-.071.468q-.657.924-1.274,1.856t-1.218,1.883l.113-.056a5.811,5.811,0,0,0,.881-.344,7.124,7.124,0,0,0,1.163-.692,8.162,8.162,0,0,0,1.168-1.036,4.954,4.954,0,0,0,.917-1.386q.1-.239.175-.484a3.568,3.568,0,0,0,.119-.5,2.661,2.661,0,0,0,.029-.546,1.039,1.039,0,0,0-.126-.461.788.788,0,0,0-.329-.309A1.162,1.162,0,0,0,540.155,60.84Z" fill="#fda32e"/>
    <path id="Tracé_409" data-name="Tracé 409" d="M547.337,68.653a.187.187,0,0,1-.1.133.7.7,0,0,1-.216.069,1.476,1.476,0,0,1-.259.021.572.572,0,0,1-.232-.042,2.221,2.221,0,0,1,.365.294,1.671,1.671,0,0,1,.279.372,1.264,1.264,0,0,1,.147.413.716.716,0,0,1-.048.406l-.126.217c-.047.079-.094.161-.141.245-.1.177-.207.368-.314.573s-.208.406-.3.6-.176.379-.245.552a1.971,1.971,0,0,0-.133.442.05.05,0,0,1-.022.042.25.25,0,0,0-.035.027h.1a2.546,2.546,0,0,0,.811-.462,6.884,6.884,0,0,0,.763-.734c.248-.276.485-.57.715-.882s.445-.614.65-.9a1.385,1.385,0,0,0,.168-.2c.037-.055.075-.116.113-.181.037-.047.107-.059.209-.036a.845.845,0,0,1,.294.133.822.822,0,0,1,.224.232.175.175,0,0,1,0,.23l-.405.561v.013q-.6.827-1.253,1.631a9.738,9.738,0,0,1-1.449,1.45,3.608,3.608,0,0,1-.316.245,3.668,3.668,0,0,1-.42.252,2.809,2.809,0,0,1-.5.2,1.668,1.668,0,0,1-.546.062,1.167,1.167,0,0,1-.945-.475,1.559,1.559,0,0,1-.2-1.051,10,10,0,0,1-1.275,1.016,2.346,2.346,0,0,1-1.232.44,1.635,1.635,0,0,1-.847-.3,1.531,1.531,0,0,1-.468-.581,1.939,1.939,0,0,1-.175-.72,3.954,3.954,0,0,1,.02-.721,3.168,3.168,0,0,1,.126-.5,5.707,5.707,0,0,1,.462-1.135,9.882,9.882,0,0,1,.771-1.231,12.3,12.3,0,0,1,.986-1.191,8.587,8.587,0,0,1,1.142-1.021,5.971,5.971,0,0,1,1.224-.714,3.123,3.123,0,0,1,1.239-.267,2.074,2.074,0,0,1,.35.029,3.212,3.212,0,0,1,.364.084.983.983,0,0,1,.511.356,1.447,1.447,0,0,1,.238.574,2.86,2.86,0,0,1,.042.7A4.17,4.17,0,0,1,547.337,68.653Zm-1.638,0a.477.477,0,0,1,.329-.028,1.378,1.378,0,0,1,.385.154.143.143,0,0,1-.042-.154.209.209,0,0,0,.007-.1.3.3,0,0,1,.008-.112c.009-.094.013-.192.013-.294a.925.925,0,0,0-.042-.288.466.466,0,0,0-.139-.216.459.459,0,0,0-.267-.1,1.768,1.768,0,0,0-1.063.371,5.778,5.778,0,0,0-1.051.974,9.718,9.718,0,0,0-.917,1.26,9.934,9.934,0,0,0-.65,1.217,3.088,3.088,0,0,0-.14.385,2.751,2.751,0,0,0-.1.455,1.724,1.724,0,0,0-.028.294.429.429,0,0,0,.063.238.286.286,0,0,0,.19.126.784.784,0,0,0,.349-.028,1.562,1.562,0,0,0,.533-.321q.321-.267.678-.623c.239-.239.471-.492.7-.764s.421-.513.581-.727c.139-.281.267-.553.384-.82a4.392,4.392,0,0,0,.246-.679Z" fill="#fda32e"/>
    <path id="Tracé_410" data-name="Tracé 410" d="M554.253,71.844q-.393.477-.868.974a8.792,8.792,0,0,1-1.008.9,5.369,5.369,0,0,1-1.106.658,2.483,2.483,0,0,1-1.134.224,1.1,1.1,0,0,1-.546-.153.94.94,0,0,1-.343-.371,1.451,1.451,0,0,1-.147-.526,2.306,2.306,0,0,1,.028-.616,4.268,4.268,0,0,1,.28-.867,5.157,5.157,0,0,1,.427-.771q.245-.363.525-.714c.187-.233.382-.471.588-.713l.336-.393v.015l.406-.477a1.18,1.18,0,0,1,.3-.279,2.16,2.16,0,0,1,.595-.238c-.131.028-.238.048-.322.062a2.179,2.179,0,0,0-.224.05l-.364.084a1.5,1.5,0,0,1-.42.027h-.14q-.378.477-.714.932t-.63.86V70.5c-.038.056-.1.071-.2.042a.743.743,0,0,1-.265-.147.847.847,0,0,1-.2-.237.187.187,0,0,1,.007-.232v.015c.271-.356.5-.665.686-.932s.354-.5.5-.707a.852.852,0,0,1-.042-.559,1.822,1.822,0,0,1,.308-.771q.237-.334.56-.784.126-.182.273-.405a4.624,4.624,0,0,0,.3-.546c.131.074.261.151.392.23a1.519,1.519,0,0,1,.343.281,1.017,1.017,0,0,1,.217.371.99.99,0,0,1,.028.475c-.019.084-.042.175-.07.274a1.643,1.643,0,0,1-.154.342l-.588.63c-.047.056-.023.064.07.022s.229-.114.406-.218.378-.224.6-.363.444-.281.658-.42.4-.272.567-.393a3.4,3.4,0,0,0,.343-.28.405.405,0,0,1,.21.084,2.393,2.393,0,0,1,.245.189c.08.071.149.136.21.2a.689.689,0,0,1,.1.119.745.745,0,0,1,0,.566,3.2,3.2,0,0,1-.371.721,9.156,9.156,0,0,1-.63.833c-.247.295-.507.6-.777.9-.158.168-.313.336-.462.5s-.3.341-.448.519c-.112.131-.238.279-.378.447s-.276.339-.406.512a4.5,4.5,0,0,0-.336.51,1.407,1.407,0,0,0-.168.42c-.019.056.028.084.14.084a.83.83,0,0,0,.406-.1,3.375,3.375,0,0,0,.546-.337,6.148,6.148,0,0,0,.6-.511,5.54,5.54,0,0,0,.574-.643h-.014q.364-.448.686-.882t.518-.742a.191.191,0,0,1,.21-.022.818.818,0,0,1,.266.161.83.83,0,0,1,.2.259.212.212,0,0,1-.014.245l.014-.027-.5.7-.658.939Z" fill="#fda32e"/>
    <path id="Tracé_411" data-name="Tracé 411" d="M560.875,70.7q-.449.63-1.085,1.392a13.581,13.581,0,0,1-1.449,1.478,4.674,4.674,0,0,1-.924.608,5.053,5.053,0,0,1-.826.323,3.482,3.482,0,0,1-.679.126c-.2.013-.357.02-.469.02a1.86,1.86,0,0,1-1.575-.63,2.269,2.269,0,0,1-.343-1.722,5.5,5.5,0,0,1,.609-1.862,11.947,11.947,0,0,1,1.365-1.973,7.726,7.726,0,0,1,.77-.749,7.869,7.869,0,0,1,1.008-.736,6.062,6.062,0,0,1,1.141-.546,3.2,3.2,0,0,1,1.141-.2,1.06,1.06,0,0,1,.861.386,1.172,1.172,0,0,1,.175.972,2.492,2.492,0,0,1-.5,1.12.651.651,0,0,1-.343.217.363.363,0,0,1-.294-.049.449.449,0,0,1-.168-.265.7.7,0,0,1,.035-.42.949.949,0,0,0,.2-.448.111.111,0,0,0-.021-.106c-.023-.023-.072-.025-.147-.007a2.677,2.677,0,0,0-1.113.546,7.138,7.138,0,0,0-1.029.994,8.635,8.635,0,0,0-.84,1.169,7.469,7.469,0,0,0-.546,1.072l-.154.559a3.1,3.1,0,0,0-.028.413,1.379,1.379,0,0,0,.049.378.88.88,0,0,0,.154.309.493.493,0,0,0,.273.175l-.028-.015a1.226,1.226,0,0,0,.651-.042,3.378,3.378,0,0,0,.84-.4,7.008,7.008,0,0,0,.959-.749,9.688,9.688,0,0,0,1.008-1.092c.178-.225.348-.455.511-.694s.32-.463.469-.678a.506.506,0,0,1,.35-.2.515.515,0,0,1,.336.084.409.409,0,0,1,.168.287.633.633,0,0,1-.154.442Z" fill="#fda32e"/>
    <path id="Tracé_412" data-name="Tracé 412" d="M565.859,68.779a8.264,8.264,0,0,1-4.423,3.346,1.893,1.893,0,0,0,.048.713.524.524,0,0,0,.413.407l-.028-.015a1.23,1.23,0,0,0,.652-.042,3.373,3.373,0,0,0,.839-.4,7,7,0,0,0,.959-.749,9.682,9.682,0,0,0,1.008-1.092c.178-.225.348-.455.511-.694s.32-.463.47-.678a.5.5,0,0,1,.342-.2.462.462,0,0,1,.323.091.476.476,0,0,1,.168.294.583.583,0,0,1-.134.428l-.35.5q-.449.63-1.085,1.392a13.587,13.587,0,0,1-1.449,1.478,4.644,4.644,0,0,1-.924.608,5.051,5.051,0,0,1-.826.323,3.468,3.468,0,0,1-.679.126c-.2.013-.357.02-.468.02a1.862,1.862,0,0,1-1.576-.63,2.265,2.265,0,0,1-.342-1.722,5.5,5.5,0,0,1,.608-1.862,11.942,11.942,0,0,1,1.365-1.973,8.225,8.225,0,0,1,1.779-1.485,6.054,6.054,0,0,1,1.14-.546,3.21,3.21,0,0,1,1.141-.2,1.078,1.078,0,0,1,.868.386,1.21,1.21,0,0,1,.183,1,2.1,2.1,0,0,1-.176.566,3.555,3.555,0,0,1-.37.609Zm-.728-1.149a2.544,2.544,0,0,0-.993.449,5.792,5.792,0,0,0-.925.826,8.95,8.95,0,0,0-.8,1.014,9.468,9.468,0,0,0-.6,1.015,7.272,7.272,0,0,0,1.848-1.1,6.6,6.6,0,0,0,1.456-1.659v.015a.734.734,0,0,0,.119-.225c.024-.074.044-.139.063-.2C565.317,67.64,565.262,67.593,565.131,67.63Z" fill="#fda32e"/>
    <path id="Tracé_413" data-name="Tracé 413" d="M570.031,66.9c-.112.177-.266.42-.462.727s-.409.652-.637,1.03-.464.774-.707,1.189-.467.818-.672,1.2-.378.744-.518,1.072a3.324,3.324,0,0,0-.252.784.126.126,0,0,0-.028.069.056.056,0,0,1-.014.042h.1a2.663,2.663,0,0,0,.8-.454,6.81,6.81,0,0,0,.756-.715,10.645,10.645,0,0,0,.7-.853q.336-.456.644-.889h-.014a3.037,3.037,0,0,1,.182-.245c.065-.079.126-.156.182-.232.037-.055.1-.07.2-.042a.958.958,0,0,1,.273.14.753.753,0,0,1,.21.231.226.226,0,0,1,.021.232l-.462.63q-.574.8-1.239,1.616a10.255,10.255,0,0,1-1.407,1.436,3.31,3.31,0,0,1-.756.49,3.468,3.468,0,0,1-.5.188,1.886,1.886,0,0,1-.532.077.915.915,0,0,1-.5-.154.9.9,0,0,1-.3-.371,1.529,1.529,0,0,1-.126-.531,3.031,3.031,0,0,1,.035-.665c.019-.1.042-.213.07-.329a2.187,2.187,0,0,1,.1-.316,13.2,13.2,0,0,1,1.169-2.722q.749-1.323,1.547-2.612l.756-1.176q.323-.531.637-1.085t.6-1.085c.192-.354.368-.7.532-1.029s.3-.637.413-.917a.629.629,0,0,1,.525.007,1.56,1.56,0,0,1,.546.371,1.7,1.7,0,0,1,.371.581.839.839,0,0,1,0,.638c-.066.14-.175.341-.329.6s-.331.556-.532.882-.411.665-.63,1.016-.427.679-.623.986Z" fill="#fda32e"/>
    <path id="Tracé_414" data-name="Tracé 414" d="M574.819,66.188a1.168,1.168,0,0,1,.819.547,2.085,2.085,0,0,1,.287.979,1.2,1.2,0,0,1,.2.477,3.239,3.239,0,0,1,.056.63,1.148,1.148,0,0,0-.035.223,2.089,2.089,0,0,1-.035.266,5.464,5.464,0,0,1-.357,1.226,8.227,8.227,0,0,1-.623,1.2,8.567,8.567,0,0,1-.826,1.105,6.66,6.66,0,0,1-.966.91,4.825,4.825,0,0,1-1.029.61,2.6,2.6,0,0,1-1.015.223,2.082,2.082,0,0,1-1.5-.6,2.567,2.567,0,0,1-.616-1.82c0-.1.005-.212.014-.33s.023-.24.042-.371a4.8,4.8,0,0,1,.392-1.239,8.181,8.181,0,0,1,1.673-2.373,7.343,7.343,0,0,1,1.127-.917,5.225,5.225,0,0,1,1.2-.588A3.092,3.092,0,0,1,574.819,66.188Zm-.98,3.7a.246.246,0,0,1-.147-.2,1.572,1.572,0,0,1-.035-.343,2.445,2.445,0,0,1,.035-.4c.023-.141.044-.262.063-.364a.938.938,0,0,1,.175-.358,2.068,2.068,0,0,1,.287-.308,2.93,2.93,0,0,1,.3-.231c.1-.064.174-.111.23-.14a.435.435,0,0,0-.2-.028,1.973,1.973,0,0,0-.714.245,4.071,4.071,0,0,0-.77.539,5.873,5.873,0,0,0-.7.778,7.864,7.864,0,0,0-.581.888,7.205,7.205,0,0,0-.434.917,3.893,3.893,0,0,0-.231.848,1.626,1.626,0,0,0,.042.889.619.619,0,0,0,.6.384,1.379,1.379,0,0,0,.7-.174,3.32,3.32,0,0,0,.714-.511,6.013,6.013,0,0,0,.679-.749,7.8,7.8,0,0,0,.6-.9,7.5,7.5,0,0,0,.448-.93,3.844,3.844,0,0,0,.238-.855l.028-.069a.509.509,0,0,0-.259.091,1.706,1.706,0,0,0-.28.216,2.107,2.107,0,0,0-.238.266,1.078,1.078,0,0,0-.147.252Z" fill="#fda32e"/>
    <path id="Tracé_415" data-name="Tracé 415" d="M583.555,71.55q-.267.364-.7.882a11.778,11.778,0,0,1-.952,1.009,7.059,7.059,0,0,1-1.056.832,1.912,1.912,0,0,1-1.015.344,1.491,1.491,0,0,1-.56-.106.972.972,0,0,1-.434-.329,1.338,1.338,0,0,1-.232-.581,2.307,2.307,0,0,1,.036-.847,7.311,7.311,0,0,1,.245-.826,8.736,8.736,0,0,1,.364-.853q.218-.448.5-.974t.644-1.183a4.3,4.3,0,0,0,.273-.525,2.06,2.06,0,0,0,.133-.4l-.672.574q-.59.489-1.085.979t-1.016,1.078a18.907,18.907,0,0,0-.853,1.771,13.489,13.489,0,0,0-.616,1.827c-.037.1-.136.15-.294.141a1.391,1.391,0,0,1-.5-.134,1.8,1.8,0,0,1-.462-.3.455.455,0,0,1-.189-.363,9.873,9.873,0,0,1,.328-1.226q.2-.594.455-1.175t.54-1.149q.287-.567.581-1.141.336-.672.658-1.308t.574-1.226a.553.553,0,0,1,.413-.007,1.566,1.566,0,0,1,.469.246,1.73,1.73,0,0,1,.391.413,1.215,1.215,0,0,1,.21.51,8.249,8.249,0,0,1,1.219-.853,2.883,2.883,0,0,1,1.232-.393.571.571,0,0,1,.384.175,1.684,1.684,0,0,1,.329.428,1.552,1.552,0,0,1,.183.546.94.94,0,0,1-.057.517q-.363.715-.713,1.337l-.6,1.072q-.223.392-.413.72t-.336.652c-.1.214-.187.433-.267.658s-.151.467-.216.727a.321.321,0,0,1,.1-.084h-.014a5.919,5.919,0,0,0,1.036-.714,8.36,8.36,0,0,0,1.288-1.372c.121-.149.235-.294.343-.433s.212-.28.315-.42l.266-.406q.055-.071.21-.036a.79.79,0,0,1,.287.133.756.756,0,0,1,.21.232.185.185,0,0,1-.007.23l.014-.027-.953,1.344Z" fill="#fda32e"/>
    <path id="Tracé_416" data-name="Tracé 416" d="M589.154,68.779a8.252,8.252,0,0,1-4.424,3.346,1.935,1.935,0,0,0,.049.713.524.524,0,0,0,.413.407l-.027-.015a1.223,1.223,0,0,0,.65-.042,3.329,3.329,0,0,0,.84-.4,6.95,6.95,0,0,0,.959-.749,9.691,9.691,0,0,0,1.009-1.092c.177-.225.348-.455.511-.694s.319-.463.469-.678a.5.5,0,0,1,.342-.2.461.461,0,0,1,.323.091.476.476,0,0,1,.168.294.577.577,0,0,1-.133.428l-.35.5q-.449.63-1.086,1.392a13.569,13.569,0,0,1-1.448,1.478,4.674,4.674,0,0,1-.924.608,5.053,5.053,0,0,1-.826.323,3.477,3.477,0,0,1-.68.126c-.2.013-.356.02-.468.02a1.863,1.863,0,0,1-1.576-.63,2.269,2.269,0,0,1-.342-1.722,5.5,5.5,0,0,1,.609-1.862,11.875,11.875,0,0,1,1.364-1.973,7.862,7.862,0,0,1,.771-.749,7.782,7.782,0,0,1,1.007-.736,6.1,6.1,0,0,1,1.142-.546,3.2,3.2,0,0,1,1.141-.2,1.08,1.08,0,0,1,.868.386,1.21,1.21,0,0,1,.182,1,2.093,2.093,0,0,1-.175.566,3.569,3.569,0,0,1-.371.609Zm-.727-1.149a2.548,2.548,0,0,0-.994.449,5.744,5.744,0,0,0-.924.826,8.728,8.728,0,0,0-.8,1.014,9.5,9.5,0,0,0-.6,1.015,7.277,7.277,0,0,0,1.849-1.1,6.623,6.623,0,0,0,1.456-1.659v.015a.73.73,0,0,0,.118-.225c.024-.074.045-.139.064-.2C588.613,67.64,588.558,67.593,588.427,67.63Z" fill="#fda32e"/>
  </g>
</svg>
